<?xml version="1.0" encoding="UTF-8"?>
<svg xmlns="http://www.w3.org/2000/svg" xmlns:xlink="http://www.w3.org/1999/xlink" width="46px" height="46px" viewBox="0 0 46 46" version="1.1">
<defs>
<filter id="alpha" filterUnits="objectBoundingBox" x="0%" y="0%" width="100%" height="100%">
  <feColorMatrix type="matrix" in="SourceGraphic" values="0 0 0 0 1 0 0 0 0 1 0 0 0 0 1 0 0 0 1 0"/>
</filter>
<mask id="mask0">
  <g filter="url(#alpha)">
<rect x="0" y="0" width="46" height="46" style="fill:rgb(0%,0%,0%);fill-opacity:0.133333;stroke:none;"/>
  </g>
</mask>
<clipPath id="clip1">
  <rect x="0" y="0" width="46" height="46"/>
</clipPath>
<g id="surface5" clip-path="url(#clip1)">
<path style=" stroke:none;fill-rule:evenodd;fill:rgb(54.117647%,61.568627%,67.843137%);fill-opacity:1;" d="M 23.136719 5.75 C 22.949219 5.75 22.765625 5.78125 22.585938 5.84375 C 22.644531 5.707031 22.75 5.648438 22.90625 5.65625 C 23.007812 5.660156 23.082031 5.691406 23.136719 5.75 Z M 23.136719 5.75 "/>
</g>
<mask id="mask1">
  <g filter="url(#alpha)">
<rect x="0" y="0" width="46" height="46" style="fill:rgb(0%,0%,0%);fill-opacity:0.380392;stroke:none;"/>
  </g>
</mask>
<clipPath id="clip2">
  <rect x="0" y="0" width="46" height="46"/>
</clipPath>
<g id="surface8" clip-path="url(#clip2)">
<path style=" stroke:none;fill-rule:evenodd;fill:rgb(54.509804%,59.607843%,68.235294%);fill-opacity:1;" d="M 20.285156 7.40625 C 20.242188 7.535156 20.152344 7.597656 20.011719 7.589844 C 20.054688 7.460938 20.144531 7.398438 20.285156 7.40625 Z M 20.285156 7.40625 "/>
</g>
<mask id="mask2">
  <g filter="url(#alpha)">
<rect x="0" y="0" width="46" height="46" style="fill:rgb(0%,0%,0%);fill-opacity:0.941176;stroke:none;"/>
  </g>
</mask>
<clipPath id="clip3">
  <rect x="0" y="0" width="46" height="46"/>
</clipPath>
<g id="surface11" clip-path="url(#clip3)">
<path style=" stroke:none;fill-rule:evenodd;fill:rgb(29.411765%,36.470588%,47.45098%);fill-opacity:1;" d="M 25.253906 7.128906 C 25.828125 7.429688 26.347656 7.800781 26.816406 8.234375 C 26.59375 8.183594 26.378906 8.109375 26.175781 8.003906 C 25.808594 7.773438 25.5 7.484375 25.253906 7.128906 Z M 25.253906 7.128906 "/>
</g>
<mask id="mask3">
  <g filter="url(#alpha)">
<rect x="0" y="0" width="46" height="46" style="fill:rgb(0%,0%,0%);fill-opacity:0.901961;stroke:none;"/>
  </g>
</mask>
<clipPath id="clip4">
  <rect x="0" y="0" width="46" height="46"/>
</clipPath>
<g id="surface14" clip-path="url(#clip4)">
<path style=" stroke:none;fill-rule:evenodd;fill:rgb(34.117647%,41.960784%,52.941176%);fill-opacity:1;" d="M 28.289062 9.246094 C 28.613281 9.363281 28.890625 9.546875 29.117188 9.796875 C 28.738281 9.746094 28.464844 9.5625 28.289062 9.246094 Z M 28.289062 9.246094 "/>
</g>
<mask id="mask4">
  <g filter="url(#alpha)">
<rect x="0" y="0" width="46" height="46" style="fill:rgb(0%,0%,0%);fill-opacity:0.301961;stroke:none;"/>
  </g>
</mask>
<clipPath id="clip5">
  <rect x="0" y="0" width="46" height="46"/>
</clipPath>
<g id="surface17" clip-path="url(#clip5)">
<path style=" stroke:none;fill-rule:evenodd;fill:rgb(46.666667%,54.901961%,63.921569%);fill-opacity:1;" d="M 13.847656 11.820312 C 13.777344 11.984375 13.652344 12.074219 13.476562 12.097656 C 13.546875 11.9375 13.671875 11.84375 13.847656 11.820312 Z M 13.847656 11.820312 "/>
</g>
<mask id="mask5">
  <g filter="url(#alpha)">
<rect x="0" y="0" width="46" height="46" style="fill:rgb(0%,0%,0%);fill-opacity:0.396078;stroke:none;"/>
  </g>
</mask>
<clipPath id="clip6">
  <rect x="0" y="0" width="46" height="46"/>
</clipPath>
<g id="surface20" clip-path="url(#clip6)">
<path style=" stroke:none;fill-rule:evenodd;fill:rgb(50.980392%,58.431373%,67.45098%);fill-opacity:1;" d="M 12.375 12.835938 C 12.332031 12.964844 12.238281 13.023438 12.097656 13.019531 C 12.140625 12.886719 12.234375 12.828125 12.375 12.835938 Z M 12.375 12.835938 "/>
</g>
<mask id="mask6">
  <g filter="url(#alpha)">
<rect x="0" y="0" width="46" height="46" style="fill:rgb(0%,0%,0%);fill-opacity:0.372549;stroke:none;"/>
  </g>
</mask>
<clipPath id="clip7">
  <rect x="0" y="0" width="46" height="46"/>
</clipPath>
<g id="surface23" clip-path="url(#clip7)">
<path style=" stroke:none;fill-rule:evenodd;fill:rgb(53.72549%,60.392157%,67.058824%);fill-opacity:1;" d="M 12.097656 13.019531 C 12.054688 13.148438 11.960938 13.207031 11.820312 13.203125 C 11.867188 13.074219 11.957031 13.011719 12.097656 13.019531 Z M 12.097656 13.019531 "/>
</g>
<mask id="mask7">
  <g filter="url(#alpha)">
<rect x="0" y="0" width="46" height="46" style="fill:rgb(0%,0%,0%);fill-opacity:0.298039;stroke:none;"/>
  </g>
</mask>
<clipPath id="clip8">
  <rect x="0" y="0" width="46" height="46"/>
</clipPath>
<g id="surface26" clip-path="url(#clip8)">
<path style=" stroke:none;fill-rule:evenodd;fill:rgb(50.588235%,58.039216%,65.882353%);fill-opacity:1;" d="M 11.820312 13.203125 C 11.75 13.363281 11.628906 13.457031 11.453125 13.476562 C 11.523438 13.316406 11.648438 13.222656 11.820312 13.203125 Z M 11.820312 13.203125 "/>
</g>
<mask id="mask8">
  <g filter="url(#alpha)">
<rect x="0" y="0" width="46" height="46" style="fill:rgb(0%,0%,0%);fill-opacity:0.282353;stroke:none;"/>
  </g>
</mask>
<clipPath id="clip9">
  <rect x="0" y="0" width="46" height="46"/>
</clipPath>
<g id="surface29" clip-path="url(#clip9)">
<path style=" stroke:none;fill-rule:evenodd;fill:rgb(52.941176%,60.392157%,70.980392%);fill-opacity:1;" d="M 9.152344 15.042969 C 9.109375 15.171875 9.019531 15.234375 8.878906 15.226562 C 8.921875 15.097656 9.011719 15.035156 9.152344 15.042969 Z M 9.152344 15.042969 "/>
</g>
<mask id="mask9">
  <g filter="url(#alpha)">
<rect x="0" y="0" width="46" height="46" style="fill:rgb(0%,0%,0%);fill-opacity:0.92549;stroke:none;"/>
  </g>
</mask>
<clipPath id="clip10">
  <rect x="0" y="0" width="46" height="46"/>
</clipPath>
<g id="surface32" clip-path="url(#clip10)">
<path style=" stroke:none;fill-rule:evenodd;fill:rgb(15.294118%,24.313725%,39.215686%);fill-opacity:1;" d="M 33.992188 14.398438 C 34.242188 14.546875 34.519531 14.609375 34.820312 14.582031 C 34.820312 14.703125 34.820312 14.828125 34.820312 14.949219 C 35.078125 14.976562 35.308594 14.914062 35.511719 14.765625 C 35.558594 14.78125 35.605469 14.796875 35.648438 14.8125 C 35.574219 14.839844 35.515625 14.886719 35.464844 14.949219 C 35.707031 15.023438 35.953125 15.070312 36.203125 15.089844 C 36.347656 15.347656 36.5625 15.441406 36.847656 15.363281 C 36.542969 15.214844 36.328125 14.984375 36.203125 14.675781 C 36.808594 15.039062 37.394531 15.4375 37.949219 15.871094 C 37.679688 15.695312 37.371094 15.605469 37.03125 15.59375 C 37.03125 15.6875 37.03125 15.777344 37.03125 15.871094 C 36.796875 15.765625 36.550781 15.703125 36.292969 15.6875 C 36.195312 15.28125 35.949219 15.160156 35.558594 15.316406 C 35.703125 15.390625 35.855469 15.4375 36.019531 15.457031 C 36.003906 15.566406 35.972656 15.675781 35.925781 15.777344 C 35.925781 15.714844 35.894531 15.6875 35.835938 15.6875 C 35.753906 15.628906 35.660156 15.597656 35.558594 15.59375 C 35.394531 15.375 35.179688 15.222656 34.914062 15.132812 C 34.582031 14.921875 34.273438 14.679688 33.992188 14.398438 Z M 33.992188 14.398438 "/>
</g>
<mask id="mask10">
  <g filter="url(#alpha)">
<rect x="0" y="0" width="46" height="46" style="fill:rgb(0%,0%,0%);fill-opacity:0.266667;stroke:none;"/>
  </g>
</mask>
<clipPath id="clip11">
  <rect x="0" y="0" width="46" height="46"/>
</clipPath>
<g id="surface35" clip-path="url(#clip11)">
<path style=" stroke:none;fill-rule:evenodd;fill:rgb(48.235294%,56.862745%,63.921569%);fill-opacity:1;" d="M 8.878906 15.226562 C 8.808594 15.386719 8.683594 15.480469 8.511719 15.503906 C 8.582031 15.339844 8.703125 15.246094 8.878906 15.226562 Z M 8.878906 15.226562 "/>
</g>
<mask id="mask11">
  <g filter="url(#alpha)">
<rect x="0" y="0" width="46" height="46" style="fill:rgb(0%,0%,0%);fill-opacity:0.423529;stroke:none;"/>
  </g>
</mask>
<clipPath id="clip12">
  <rect x="0" y="0" width="46" height="46"/>
</clipPath>
<g id="surface38" clip-path="url(#clip12)">
<path style=" stroke:none;fill-rule:evenodd;fill:rgb(59.607843%,65.490196%,71.372549%);fill-opacity:1;" d="M 38.132812 16.054688 C 38.355469 16.261719 38.355469 16.476562 38.132812 16.699219 C 38.132812 16.636719 38.132812 16.574219 38.132812 16.515625 C 38.132812 16.359375 38.132812 16.207031 38.132812 16.054688 Z M 38.132812 16.054688 "/>
</g>
<mask id="mask12">
  <g filter="url(#alpha)">
<rect x="0" y="0" width="46" height="46" style="fill:rgb(0%,0%,0%);fill-opacity:0.568627;stroke:none;"/>
  </g>
</mask>
<clipPath id="clip13">
  <rect x="0" y="0" width="46" height="46"/>
</clipPath>
<g id="surface41" clip-path="url(#clip13)">
<path style=" stroke:none;fill-rule:evenodd;fill:rgb(40.784314%,48.235294%,59.215686%);fill-opacity:1;" d="M 7.957031 16.789062 C 9.230469 16.757812 10.488281 16.789062 11.730469 16.882812 C 11.699219 16.882812 11.667969 16.882812 11.636719 16.882812 C 10.914062 16.921875 10.179688 16.953125 9.429688 16.972656 C 9 16.957031 8.570312 16.945312 8.140625 16.929688 C 8.058594 16.902344 7.996094 16.855469 7.957031 16.789062 Z M 7.957031 16.789062 "/>
</g>
<mask id="mask13">
  <g filter="url(#alpha)">
<rect x="0" y="0" width="46" height="46" style="fill:rgb(0%,0%,0%);fill-opacity:0.643137;stroke:none;"/>
  </g>
</mask>
<clipPath id="clip14">
  <rect x="0" y="0" width="46" height="46"/>
</clipPath>
<g id="surface44" clip-path="url(#clip14)">
<path style=" stroke:none;fill-rule:evenodd;fill:rgb(24.313725%,33.72549%,47.058824%);fill-opacity:1;" d="M 38.132812 16.515625 C 38.132812 16.574219 38.132812 16.636719 38.132812 16.699219 C 38.0625 16.84375 37.9375 16.90625 37.765625 16.882812 C 36.570312 16.882812 35.375 16.882812 34.179688 16.882812 C 35.417969 16.804688 36.675781 16.757812 37.949219 16.742188 C 37.824219 16.484375 37.886719 16.410156 38.132812 16.515625 Z M 38.132812 16.515625 "/>
</g>
<mask id="mask14">
  <g filter="url(#alpha)">
<rect x="0" y="0" width="46" height="46" style="fill:rgb(0%,0%,0%);fill-opacity:0.137255;stroke:none;"/>
  </g>
</mask>
<clipPath id="clip15">
  <rect x="0" y="0" width="46" height="46"/>
</clipPath>
<g id="surface47" clip-path="url(#clip15)">
<path style=" stroke:none;fill-rule:evenodd;fill:rgb(78.431373%,85.098039%,90.196078%);fill-opacity:1;" d="M 11.636719 16.882812 C 11.667969 16.882812 11.699219 16.882812 11.730469 16.882812 C 11.730469 22.648438 11.730469 28.414062 11.730469 34.179688 C 11.667969 34.179688 11.605469 34.179688 11.546875 34.179688 C 11.636719 28.417969 11.667969 22.652344 11.636719 16.882812 Z M 11.636719 16.882812 "/>
</g>
<mask id="mask15">
  <g filter="url(#alpha)">
<rect x="0" y="0" width="46" height="46" style="fill:rgb(0%,0%,0%);fill-opacity:0.988235;stroke:none;"/>
  </g>
</mask>
<clipPath id="clip16">
  <rect x="0" y="0" width="46" height="46"/>
</clipPath>
<g id="surface50" clip-path="url(#clip16)">
<path style=" stroke:none;fill-rule:evenodd;fill:rgb(3.529412%,18.431373%,33.333333%);fill-opacity:1;" d="M 34.179688 16.882812 C 34.179688 22.648438 34.179688 28.414062 34.179688 34.179688 C 34.054688 33.476562 33.996094 32.738281 33.992188 31.96875 C 34.042969 28.921875 34.042969 25.867188 33.992188 22.816406 C 33.992188 20.804688 34.054688 18.828125 34.179688 16.882812 Z M 34.179688 16.882812 "/>
</g>
<mask id="mask16">
  <g filter="url(#alpha)">
<rect x="0" y="0" width="46" height="46" style="fill:rgb(0%,0%,0%);fill-opacity:0.121569;stroke:none;"/>
  </g>
</mask>
<clipPath id="clip17">
  <rect x="0" y="0" width="46" height="46"/>
</clipPath>
<g id="surface53" clip-path="url(#clip17)">
<path style=" stroke:none;fill-rule:evenodd;fill:rgb(68.627451%,74.901961%,83.137255%);fill-opacity:1;" d="M 25.898438 34.179688 C 25.835938 34.179688 25.773438 34.179688 25.714844 34.179688 C 25.804688 31.332031 25.835938 28.480469 25.804688 25.621094 C 23.90625 25.621094 22.003906 25.621094 20.101562 25.621094 C 20.070312 28.480469 20.101562 31.332031 20.195312 34.179688 C 20.132812 34.179688 20.070312 34.179688 20.011719 34.179688 C 20.011719 31.296875 20.011719 28.414062 20.011719 25.53125 C 21.972656 25.53125 23.933594 25.53125 25.898438 25.53125 C 25.898438 28.414062 25.898438 31.296875 25.898438 34.179688 Z M 25.714844 34.179688 C 23.875 34.074219 22.035156 34.074219 20.195312 34.179688 C 20.101562 31.332031 20.070312 28.480469 20.101562 25.621094 C 22.003906 25.621094 23.90625 25.621094 25.804688 25.621094 C 25.835938 28.480469 25.804688 31.332031 25.714844 34.179688 Z M 25.714844 34.179688 "/>
</g>
<mask id="mask17">
  <g filter="url(#alpha)">
<rect x="0" y="0" width="46" height="46" style="fill:rgb(0%,0%,0%);fill-opacity:0.0156863;stroke:none;"/>
  </g>
</mask>
<clipPath id="clip18">
  <rect x="0" y="0" width="46" height="46"/>
</clipPath>
<g id="surface56" clip-path="url(#clip18)">
<path style=" stroke:none;fill-rule:evenodd;fill:rgb(94.509804%,94.509804%,94.901961%);fill-opacity:1;" d="M 21.664062 25.988281 C 21.789062 25.988281 21.910156 25.988281 22.035156 25.988281 C 22.082031 26.5625 21.867188 26.6875 21.390625 26.359375 C 21.484375 26.234375 21.578125 26.109375 21.664062 25.988281 Z M 21.664062 25.988281 "/>
</g>
<mask id="mask18">
  <g filter="url(#alpha)">
<rect x="0" y="0" width="46" height="46" style="fill:rgb(0%,0%,0%);fill-opacity:0.117647;stroke:none;"/>
  </g>
</mask>
<clipPath id="clip19">
  <rect x="0" y="0" width="46" height="46"/>
</clipPath>
<g id="surface59" clip-path="url(#clip19)">
<path style=" stroke:none;fill-rule:evenodd;fill:rgb(81.568627%,87.058824%,92.156863%);fill-opacity:1;" d="M 34.179688 16.882812 C 35.375 16.882812 36.570312 16.882812 37.765625 16.882812 C 36.617188 16.972656 35.453125 17.003906 34.269531 16.972656 C 34.269531 22.679688 34.269531 28.382812 34.269531 34.085938 C 35.296875 34.054688 36.308594 34.085938 37.304688 34.179688 C 36.261719 34.179688 35.21875 34.179688 34.179688 34.179688 C 34.179688 28.414062 34.179688 22.648438 34.179688 16.882812 Z M 34.179688 16.882812 "/>
</g>
<mask id="mask19">
  <g filter="url(#alpha)">
<rect x="0" y="0" width="46" height="46" style="fill:rgb(0%,0%,0%);fill-opacity:0.447059;stroke:none;"/>
  </g>
</mask>
<clipPath id="clip20">
  <rect x="0" y="0" width="46" height="46"/>
</clipPath>
<g id="surface62" clip-path="url(#clip20)">
<path style=" stroke:none;fill-rule:evenodd;fill:rgb(59.607843%,65.882353%,74.509804%);fill-opacity:1;" d="M 11.546875 34.179688 C 11.605469 34.179688 11.667969 34.179688 11.730469 34.179688 C 10.609375 34.253906 9.476562 34.300781 8.324219 34.316406 C 8.277344 34.382812 8.214844 34.429688 8.140625 34.453125 C 8.132812 34.363281 8.164062 34.285156 8.234375 34.222656 C 8.355469 34.195312 8.480469 34.164062 8.601562 34.132812 C 9.59375 34.097656 10.578125 34.113281 11.546875 34.179688 Z M 11.546875 34.179688 "/>
</g>
<mask id="mask20">
  <g filter="url(#alpha)">
<rect x="0" y="0" width="46" height="46" style="fill:rgb(0%,0%,0%);fill-opacity:0.403922;stroke:none;"/>
  </g>
</mask>
<clipPath id="clip21">
  <rect x="0" y="0" width="46" height="46"/>
</clipPath>
<g id="surface65" clip-path="url(#clip21)">
<path style=" stroke:none;fill-rule:evenodd;fill:rgb(64.705882%,70.588235%,79.607843%);fill-opacity:1;" d="M 25.714844 34.179688 C 25.773438 34.179688 25.835938 34.179688 25.898438 34.179688 C 23.933594 34.300781 21.972656 34.300781 20.011719 34.179688 C 20.070312 34.179688 20.132812 34.179688 20.195312 34.179688 C 22.035156 34.074219 23.875 34.074219 25.714844 34.179688 Z M 25.714844 34.179688 "/>
</g>
<mask id="mask21">
  <g filter="url(#alpha)">
<rect x="0" y="0" width="46" height="46" style="fill:rgb(0%,0%,0%);fill-opacity:0.533333;stroke:none;"/>
  </g>
</mask>
<clipPath id="clip22">
  <rect x="0" y="0" width="46" height="46"/>
</clipPath>
<g id="surface68" clip-path="url(#clip22)">
<path style=" stroke:none;fill-rule:evenodd;fill:rgb(45.882353%,54.117647%,64.705882%);fill-opacity:1;" d="M 34.179688 34.179688 C 35.21875 34.179688 36.261719 34.179688 37.304688 34.179688 C 37.5625 34.125 37.714844 34.214844 37.765625 34.453125 C 37.695312 34.429688 37.632812 34.382812 37.582031 34.316406 C 36.429688 34.300781 35.296875 34.253906 34.179688 34.179688 Z M 34.179688 34.179688 "/>
</g>
<mask id="mask22">
  <g filter="url(#alpha)">
<rect x="0" y="0" width="46" height="46" style="fill:rgb(0%,0%,0%);fill-opacity:0.552941;stroke:none;"/>
  </g>
</mask>
<clipPath id="clip23">
  <rect x="0" y="0" width="46" height="46"/>
</clipPath>
<g id="surface71" clip-path="url(#clip23)">
<path style=" stroke:none;fill-rule:evenodd;fill:rgb(36.862745%,47.058824%,55.294118%);fill-opacity:1;" d="M 37.765625 34.453125 C 37.917969 34.6875 37.949219 34.933594 37.859375 35.191406 C 37.859375 35.679688 37.859375 36.171875 37.859375 36.660156 C 37.765625 35.941406 37.734375 35.207031 37.765625 34.453125 Z M 37.765625 34.453125 "/>
</g>
<mask id="mask23">
  <g filter="url(#alpha)">
<rect x="0" y="0" width="46" height="46" style="fill:rgb(0%,0%,0%);fill-opacity:0.0980392;stroke:none;"/>
  </g>
</mask>
<clipPath id="clip24">
  <rect x="0" y="0" width="46" height="46"/>
</clipPath>
<g id="surface74" clip-path="url(#clip24)">
<path style=" stroke:none;fill-rule:evenodd;fill:rgb(91.764706%,96.470588%,98.431373%);fill-opacity:1;" d="M 8.050781 34.914062 C 8.050781 35.496094 8.050781 36.078125 8.050781 36.660156 C 7.527344 36.660156 7.007812 36.660156 6.484375 36.660156 C 6.957031 36.570312 7.449219 36.539062 7.957031 36.570312 C 7.929688 36 7.957031 35.449219 8.050781 34.914062 Z M 8.050781 34.914062 "/>
</g>
<mask id="mask24">
  <g filter="url(#alpha)">
<rect x="0" y="0" width="46" height="46" style="fill:rgb(0%,0%,0%);fill-opacity:0.0941176;stroke:none;"/>
  </g>
</mask>
<clipPath id="clip25">
  <rect x="0" y="0" width="46" height="46"/>
</clipPath>
<g id="surface77" clip-path="url(#clip25)">
<path style=" stroke:none;fill-rule:evenodd;fill:rgb(91.372549%,96.470588%,98.431373%);fill-opacity:1;" d="M 37.859375 35.191406 C 37.949219 35.632812 37.980469 36.09375 37.949219 36.570312 C 38.457031 36.539062 38.949219 36.570312 39.421875 36.660156 C 38.902344 36.660156 38.378906 36.660156 37.859375 36.660156 C 37.859375 36.171875 37.859375 35.679688 37.859375 35.191406 Z M 37.859375 35.191406 "/>
</g>
<mask id="mask25">
  <g filter="url(#alpha)">
<rect x="0" y="0" width="46" height="46" style="fill:rgb(0%,0%,0%);fill-opacity:0.709804;stroke:none;"/>
  </g>
</mask>
<clipPath id="clip26">
  <rect x="0" y="0" width="46" height="46"/>
</clipPath>
<g id="surface80" clip-path="url(#clip26)">
<path style=" stroke:none;fill-rule:evenodd;fill:rgb(30.980392%,39.215686%,48.627451%);fill-opacity:1;" d="M 37.859375 36.660156 C 38.378906 36.660156 38.902344 36.660156 39.421875 36.660156 C 39.617188 36.667969 39.742188 36.757812 39.789062 36.9375 C 39.699219 36.894531 39.609375 36.847656 39.515625 36.800781 C 38.945312 36.785156 38.394531 36.738281 37.859375 36.660156 Z M 37.859375 36.660156 "/>
</g>
<mask id="mask26">
  <g filter="url(#alpha)">
<rect x="0" y="0" width="46" height="46" style="fill:rgb(0%,0%,0%);fill-opacity:0.168627;stroke:none;"/>
  </g>
</mask>
<clipPath id="clip27">
  <rect x="0" y="0" width="46" height="46"/>
</clipPath>
<g id="surface83" clip-path="url(#clip27)">
<path style=" stroke:none;fill-rule:evenodd;fill:rgb(83.137255%,86.666667%,91.764706%);fill-opacity:1;" d="M 6.394531 36.660156 C 6.332031 36.785156 6.242188 36.875 6.117188 36.9375 C 6.117188 36.753906 6.210938 36.660156 6.394531 36.660156 Z M 6.394531 36.660156 "/>
</g>
<mask id="mask27">
  <g filter="url(#alpha)">
<rect x="0" y="0" width="46" height="46" style="fill:rgb(0%,0%,0%);fill-opacity:0.0588235;stroke:none;"/>
  </g>
</mask>
<clipPath id="clip28">
  <rect x="0" y="0" width="46" height="46"/>
</clipPath>
<g id="surface86" clip-path="url(#clip28)">
<path style=" stroke:none;fill-rule:evenodd;fill:rgb(64.705882%,69.019608%,75.294118%);fill-opacity:1;" d="M 6.117188 39.882812 C 6.242188 39.945312 6.332031 40.035156 6.394531 40.15625 C 6.210938 40.15625 6.117188 40.066406 6.117188 39.882812 Z M 6.117188 39.882812 "/>
</g>
<mask id="mask28">
  <g filter="url(#alpha)">
<rect x="0" y="0" width="46" height="46" style="fill:rgb(0%,0%,0%);fill-opacity:0.882353;stroke:none;"/>
  </g>
</mask>
<clipPath id="clip29">
  <rect x="0" y="0" width="46" height="46"/>
</clipPath>
<g id="surface89" clip-path="url(#clip29)">
<path style=" stroke:none;fill-rule:evenodd;fill:rgb(0%,10.980392%,29.411765%);fill-opacity:1;" d="M 39.605469 39.972656 C 39.574219 40.035156 39.542969 40.097656 39.515625 40.15625 C 28.410156 40.1875 17.617188 40.15625 7.128906 40.066406 C 17.710938 40.066406 28.289062 40.066406 38.871094 40.066406 C 39.121094 40.074219 39.367188 40.042969 39.605469 39.972656 Z M 39.605469 39.972656 "/>
</g>
<mask id="mask29">
  <g filter="url(#alpha)">
<rect x="0" y="0" width="46" height="46" style="fill:rgb(0%,0%,0%);fill-opacity:0.0392157;stroke:none;"/>
  </g>
</mask>
<clipPath id="clip30">
  <rect x="0" y="0" width="46" height="46"/>
</clipPath>
<g id="surface92" clip-path="url(#clip30)">
<path style=" stroke:none;fill-rule:evenodd;fill:rgb(69.411765%,73.72549%,80.392157%);fill-opacity:1;" d="M 39.789062 39.882812 C 39.789062 40.066406 39.699219 40.15625 39.515625 40.15625 C 39.542969 40.097656 39.574219 40.035156 39.605469 39.972656 C 39.667969 39.945312 39.730469 39.914062 39.789062 39.882812 Z M 39.789062 39.882812 "/>
</g>
</defs>
<g id="surface1">
<use xlink:href="#surface5" mask="url(#mask0)"/>
<path style=" stroke:none;fill-rule:evenodd;fill:rgb(31.764706%,38.823529%,50.196078%);fill-opacity:1;" d="M 23.230469 5.75 C 23.757812 6.042969 24.246094 6.378906 24.703125 6.761719 C 24.546875 6.738281 24.410156 6.675781 24.289062 6.578125 C 24.257812 6.609375 24.226562 6.640625 24.195312 6.671875 C 24.0625 6.382812 23.832031 6.226562 23.507812 6.210938 C 23.410156 6.054688 23.316406 5.898438 23.230469 5.75 Z M 23.230469 5.75 "/>
<path style=" stroke:none;fill-rule:evenodd;fill:rgb(8.627451%,21.176471%,39.215686%);fill-opacity:1;" d="M 23.136719 5.75 C 23.167969 5.75 23.199219 5.75 23.230469 5.75 C 23.316406 5.898438 23.410156 6.054688 23.507812 6.210938 C 23.832031 6.226562 24.0625 6.382812 24.195312 6.671875 C 24.226562 6.640625 24.257812 6.609375 24.289062 6.578125 C 24.410156 6.675781 24.546875 6.738281 24.703125 6.761719 C 24.914062 6.851562 25.097656 6.972656 25.253906 7.128906 C 25.5 7.484375 25.808594 7.773438 26.175781 8.003906 C 26.378906 8.109375 26.59375 8.183594 26.816406 8.234375 C 27.339844 8.527344 27.832031 8.863281 28.289062 9.246094 C 28.464844 9.5625 28.738281 9.746094 29.117188 9.796875 C 31.507812 11.390625 33.867188 13.015625 36.203125 14.675781 C 35.75 14.574219 35.382812 14.34375 35.097656 13.984375 C 34.789062 13.792969 34.449219 13.667969 34.085938 13.617188 C 33.90625 13.53125 33.816406 13.394531 33.808594 13.203125 C 33.59375 13.203125 33.378906 13.203125 33.164062 13.203125 C 33.164062 13.109375 33.164062 13.019531 33.164062 12.925781 C 32.980469 12.863281 32.796875 12.804688 32.613281 12.742188 C 32.644531 12.980469 32.78125 13.136719 33.027344 13.203125 C 33.082031 13.332031 33.066406 13.453125 32.980469 13.570312 C 33.179688 13.796875 33.425781 13.949219 33.71875 14.03125 C 33.777344 14.113281 33.804688 14.207031 33.808594 14.304688 C 33.160156 13.839844 32.484375 13.410156 31.785156 13.019531 C 29.820312 11.605469 27.828125 10.226562 25.804688 8.878906 C 25.066406 8.324219 24.300781 7.800781 23.507812 7.3125 C 23.195312 6.875 22.859375 6.84375 22.492188 7.222656 C 21.699219 7.710938 20.933594 8.230469 20.195312 8.785156 C 19.738281 9.058594 19.308594 9.363281 18.90625 9.707031 C 18.179688 10.09375 17.503906 10.554688 16.882812 11.085938 C 15.992188 11.625 15.132812 12.207031 14.304688 12.835938 C 13.214844 13.546875 12.140625 14.285156 11.085938 15.042969 C 11.054688 15.042969 11.023438 15.042969 10.992188 15.042969 C 10.851562 14.789062 10.910156 14.589844 11.179688 14.445312 C 11.386719 14.386719 11.539062 14.265625 11.636719 14.074219 C 11.785156 14.007812 11.925781 14.023438 12.050781 14.121094 C 12.03125 13.636719 12.261719 13.421875 12.742188 13.476562 C 12.773438 13.28125 12.699219 13.160156 12.511719 13.109375 C 12.109375 13.472656 11.636719 13.703125 11.085938 13.800781 C 11.007812 14 10.871094 14.136719 10.671875 14.214844 C 10.527344 14.371094 10.453125 14.554688 10.441406 14.765625 C 9.988281 14.765625 9.558594 14.855469 9.152344 15.042969 C 9.894531 14.484375 10.660156 13.964844 11.453125 13.476562 C 11.628906 13.457031 11.75 13.363281 11.820312 13.203125 C 11.960938 13.207031 12.054688 13.148438 12.097656 13.019531 C 12.238281 13.023438 12.332031 12.964844 12.375 12.835938 C 12.710938 12.542969 13.078125 12.296875 13.476562 12.097656 C 13.652344 12.074219 13.777344 11.984375 13.847656 11.820312 C 15.851562 10.34375 17.90625 8.933594 20.011719 7.589844 C 20.152344 7.597656 20.242188 7.535156 20.285156 7.40625 C 21.027344 6.847656 21.792969 6.328125 22.585938 5.84375 C 22.765625 5.78125 22.949219 5.75 23.136719 5.75 Z M 23.136719 5.75 "/>
<path style=" stroke:none;fill-rule:evenodd;fill:rgb(80%,74.117647%,45.098039%);fill-opacity:1;" d="M 23.507812 7.3125 C 23.179688 7.125 22.84375 7.09375 22.492188 7.222656 C 22.859375 6.84375 23.195312 6.875 23.507812 7.3125 Z M 23.507812 7.3125 "/>
<use xlink:href="#surface8" mask="url(#mask1)"/>
<use xlink:href="#surface11" mask="url(#mask2)"/>
<path style=" stroke:none;fill-rule:evenodd;fill:rgb(89.803922%,76.862745%,32.156863%);fill-opacity:1;" d="M 22.492188 7.222656 C 21.925781 8.027344 21.160156 8.546875 20.195312 8.785156 C 20.933594 8.230469 21.699219 7.710938 22.492188 7.222656 Z M 22.492188 7.222656 "/>
<path style=" stroke:none;fill-rule:evenodd;fill:rgb(85.098039%,74.509804%,36.078431%);fill-opacity:1;" d="M 20.195312 8.785156 C 20.117188 9.042969 19.964844 9.242188 19.734375 9.382812 C 19.449219 9.46875 19.171875 9.578125 18.90625 9.707031 C 19.308594 9.363281 19.738281 9.058594 20.195312 8.785156 Z M 20.195312 8.785156 "/>
<use xlink:href="#surface14" mask="url(#mask3)"/>
<path style=" stroke:none;fill-rule:evenodd;fill:rgb(87.843137%,76.078431%,34.901961%);fill-opacity:1;" d="M 18.90625 9.707031 C 18.746094 9.824219 18.714844 9.960938 18.8125 10.121094 C 18.417969 10.074219 18.203125 10.242188 18.171875 10.625 C 17.832031 10.550781 17.585938 10.660156 17.433594 10.949219 C 17.25 10.996094 17.0625 11.039062 16.882812 11.085938 C 17.503906 10.554688 18.179688 10.09375 18.90625 9.707031 Z M 18.90625 9.707031 "/>
<path style=" stroke:none;fill-rule:evenodd;fill:rgb(96.078431%,76.078431%,26.27451%);fill-opacity:1;" d="M 25.804688 8.878906 C 27.828125 10.226562 29.820312 11.605469 31.785156 13.019531 C 31.640625 12.980469 31.5 12.917969 31.371094 12.835938 C 31.300781 12.847656 31.238281 12.878906 31.1875 12.925781 C 31.152344 12.738281 31.042969 12.617188 30.867188 12.558594 C 30.40625 12.667969 30.347656 12.59375 30.683594 12.328125 C 30.46875 12.257812 30.285156 12.300781 30.128906 12.464844 C 29.964844 12.175781 29.71875 11.992188 29.394531 11.914062 C 29.253906 11.5 28.976562 11.269531 28.566406 11.222656 C 28.886719 11.386719 28.902344 11.554688 28.613281 11.730469 C 28.566406 11.847656 28.550781 11.972656 28.566406 12.097656 C 28.332031 12.222656 28.101562 12.378906 27.875 12.558594 C 27.707031 12.398438 27.722656 12.246094 27.921875 12.097656 C 27.878906 12.023438 27.820312 11.992188 27.738281 12.007812 C 27.707031 12.34375 27.585938 12.632812 27.371094 12.878906 C 27.4375 13.226562 27.652344 13.378906 28.015625 13.339844 C 27.941406 13.367188 27.878906 13.414062 27.828125 13.476562 C 27.917969 13.644531 28.027344 13.796875 28.152344 13.9375 C 28.222656 14.148438 28.207031 14.347656 28.105469 14.535156 C 28.179688 14.5625 28.242188 14.609375 28.289062 14.675781 C 28.164062 14.769531 28.105469 14.890625 28.105469 15.042969 C 25.621094 15.074219 23.136719 15.042969 20.652344 14.949219 C 20.839844 14.460938 21.023438 14.460938 21.207031 14.949219 C 21.324219 14.703125 21.292969 14.472656 21.113281 14.261719 C 21.265625 14.128906 21.328125 13.957031 21.296875 13.753906 C 21.523438 13.734375 21.738281 13.765625 21.941406 13.847656 C 21.941406 13.90625 21.941406 13.96875 21.941406 14.03125 C 21.941406 14.183594 21.941406 14.335938 21.941406 14.488281 C 22.527344 14.410156 23.109375 14.410156 23.691406 14.488281 C 23.675781 14.027344 23.691406 13.570312 23.734375 13.109375 C 23.796875 13.039062 23.875 13.011719 23.964844 13.019531 C 24.203125 13.355469 24.386719 13.722656 24.519531 14.121094 C 24.511719 14.214844 24.539062 14.289062 24.609375 14.351562 C 24.878906 14.421875 25.140625 14.40625 25.390625 14.304688 C 25.40625 13.832031 25.421875 13.355469 25.4375 12.878906 C 25.4375 12.371094 25.375 11.894531 25.253906 11.453125 C 25.285156 11.269531 25.316406 11.085938 25.347656 10.902344 C 25.773438 10.785156 26.1875 10.628906 26.589844 10.441406 C 26.648438 10.351562 26.648438 10.257812 26.589844 10.164062 C 26.429688 10.089844 26.355469 9.96875 26.359375 9.796875 C 26.449219 9.796875 26.542969 9.796875 26.632812 9.796875 C 26.632812 9.707031 26.632812 9.613281 26.632812 9.523438 C 26.152344 9.574219 25.878906 9.359375 25.804688 8.878906 Z M 25.804688 8.878906 "/>
<use xlink:href="#surface17" mask="url(#mask4)"/>
<path style=" stroke:none;fill-rule:evenodd;fill:rgb(84.705882%,74.901961%,37.254902%);fill-opacity:1;" d="M 16.882812 11.085938 C 16.882812 11.179688 16.882812 11.269531 16.882812 11.363281 C 16.582031 11.34375 16.398438 11.480469 16.328125 11.777344 C 16.175781 11.804688 16.023438 11.835938 15.871094 11.867188 C 15.722656 12.058594 15.539062 12.199219 15.316406 12.28125 C 15.28125 12.523438 15.175781 12.585938 14.996094 12.464844 C 14.839844 12.519531 14.730469 12.625 14.675781 12.789062 C 14.554688 12.832031 14.433594 12.847656 14.304688 12.835938 C 15.132812 12.207031 15.992188 11.625 16.882812 11.085938 Z M 16.882812 11.085938 "/>
<path style=" stroke:none;fill-rule:evenodd;fill:rgb(97.254902%,75.686275%,23.921569%);fill-opacity:1;" d="M 23.507812 7.3125 C 24.300781 7.800781 25.066406 8.324219 25.804688 8.878906 C 25.878906 9.359375 26.152344 9.574219 26.632812 9.523438 C 26.632812 9.613281 26.632812 9.707031 26.632812 9.796875 C 26.542969 9.796875 26.449219 9.796875 26.359375 9.796875 C 26.355469 9.96875 26.429688 10.089844 26.589844 10.164062 C 26.648438 10.257812 26.648438 10.351562 26.589844 10.441406 C 26.1875 10.628906 25.773438 10.785156 25.347656 10.902344 C 25.316406 11.085938 25.285156 11.269531 25.253906 11.453125 C 25.101562 11.453125 24.949219 11.453125 24.792969 11.453125 C 24.824219 12.085938 24.792969 12.699219 24.703125 13.292969 C 24.664062 13.128906 24.605469 12.976562 24.519531 12.835938 C 24.378906 12.496094 24.195312 12.1875 23.964844 11.914062 C 23.820312 11.476562 23.546875 11.355469 23.136719 11.546875 C 23.078125 11.546875 23.046875 11.578125 23.046875 11.636719 C 22.929688 12.480469 22.855469 13.339844 22.816406 14.214844 C 22.808594 14.015625 22.730469 13.863281 22.585938 13.753906 C 22.554688 13.753906 22.523438 13.753906 22.492188 13.753906 C 22.433594 13.507812 22.371094 13.261719 22.308594 13.019531 C 22.347656 12.636719 22.222656 12.328125 21.941406 12.097656 C 21.910156 11.976562 21.878906 11.851562 21.851562 11.730469 C 21.859375 11.636719 21.828125 11.5625 21.757812 11.5 C 21.496094 11.425781 21.25 11.441406 21.023438 11.546875 C 20.960938 11.761719 20.898438 11.976562 20.839844 12.191406 C 20.664062 12.535156 20.539062 12.902344 20.46875 13.292969 C 20.394531 13.457031 20.304688 13.609375 20.195312 13.753906 C 20.082031 13.597656 20.019531 13.414062 20.011719 13.203125 C 20.117188 12.992188 20.164062 12.777344 20.148438 12.558594 C 20.011719 12.777344 19.90625 12.777344 19.824219 12.558594 C 19.878906 12.21875 19.941406 11.878906 20.011719 11.546875 C 19.886719 11.515625 19.765625 11.484375 19.640625 11.453125 C 19.558594 11.378906 19.53125 11.285156 19.550781 11.179688 C 19.332031 11.160156 19.117188 11.132812 18.90625 11.085938 C 18.90625 11.179688 18.90625 11.269531 18.90625 11.363281 C 18.542969 11.335938 18.191406 11.367188 17.847656 11.453125 C 17.773438 12.441406 17.789062 13.421875 17.894531 14.398438 C 18.5 14.527344 19.097656 14.496094 19.6875 14.304688 C 20.136719 14.589844 20.535156 14.527344 20.882812 14.121094 C 20.929688 14.003906 20.945312 13.878906 20.929688 13.753906 C 21.050781 13.753906 21.175781 13.753906 21.296875 13.753906 C 21.328125 13.957031 21.265625 14.128906 21.113281 14.261719 C 21.292969 14.472656 21.324219 14.703125 21.207031 14.949219 C 21.023438 14.460938 20.839844 14.460938 20.652344 14.949219 C 23.136719 15.042969 25.621094 15.074219 28.105469 15.042969 C 28.105469 14.890625 28.164062 14.769531 28.289062 14.675781 C 28.242188 14.609375 28.179688 14.5625 28.105469 14.535156 C 28.207031 14.347656 28.222656 14.148438 28.152344 13.9375 C 28.027344 13.796875 27.917969 13.644531 27.828125 13.476562 C 27.878906 13.414062 27.941406 13.367188 28.015625 13.339844 C 27.652344 13.378906 27.4375 13.226562 27.371094 12.878906 C 27.585938 12.632812 27.707031 12.34375 27.738281 12.007812 C 27.820312 11.992188 27.878906 12.023438 27.921875 12.097656 C 27.722656 12.246094 27.707031 12.398438 27.875 12.558594 C 28.101562 12.378906 28.332031 12.222656 28.566406 12.097656 C 28.550781 11.972656 28.566406 11.847656 28.613281 11.730469 C 28.902344 11.554688 28.886719 11.386719 28.566406 11.222656 C 28.976562 11.269531 29.253906 11.5 29.394531 11.914062 C 29.71875 11.992188 29.964844 12.175781 30.128906 12.464844 C 30.285156 12.300781 30.46875 12.257812 30.683594 12.328125 C 30.347656 12.59375 30.40625 12.667969 30.867188 12.558594 C 31.042969 12.617188 31.152344 12.738281 31.1875 12.925781 C 31.238281 12.878906 31.300781 12.847656 31.371094 12.835938 C 31.5 12.917969 31.640625 12.980469 31.785156 13.019531 C 32.484375 13.410156 33.160156 13.839844 33.808594 14.304688 C 33.839844 14.382812 33.902344 14.414062 33.992188 14.398438 C 34.273438 14.679688 34.582031 14.921875 34.914062 15.132812 C 34.851562 15.289062 34.726562 15.382812 34.546875 15.410156 C 34.390625 15.273438 34.207031 15.214844 33.992188 15.226562 C 26.691406 15.273438 19.375 15.273438 12.050781 15.226562 C 11.796875 15.207031 11.566406 15.269531 11.363281 15.410156 C 11.25 15.339844 11.125 15.3125 10.992188 15.316406 C 11 15.214844 11.03125 15.125 11.085938 15.042969 C 12.140625 14.285156 13.214844 13.546875 14.304688 12.835938 C 14.433594 12.847656 14.554688 12.832031 14.675781 12.789062 C 14.730469 12.625 14.839844 12.519531 14.996094 12.464844 C 15.175781 12.585938 15.28125 12.523438 15.316406 12.28125 C 15.539062 12.199219 15.722656 12.058594 15.871094 11.867188 C 16.023438 11.835938 16.175781 11.804688 16.328125 11.777344 C 16.398438 11.480469 16.582031 11.34375 16.882812 11.363281 C 16.882812 11.269531 16.882812 11.179688 16.882812 11.085938 C 17.0625 11.039062 17.25 10.996094 17.433594 10.949219 C 17.585938 10.660156 17.832031 10.550781 18.171875 10.625 C 18.203125 10.242188 18.417969 10.074219 18.8125 10.121094 C 18.714844 9.960938 18.746094 9.824219 18.90625 9.707031 C 19.171875 9.578125 19.449219 9.46875 19.734375 9.382812 C 19.964844 9.242188 20.117188 9.042969 20.195312 8.785156 C 21.160156 8.546875 21.925781 8.027344 22.492188 7.222656 C 22.84375 7.09375 23.179688 7.125 23.507812 7.3125 Z M 23.507812 7.3125 "/>
<path style=" stroke:none;fill-rule:evenodd;fill:rgb(82.745098%,75.294118%,41.176471%);fill-opacity:1;" d="M 21.941406 12.097656 C 22.222656 12.328125 22.347656 12.636719 22.308594 13.019531 C 22.136719 12.742188 22.011719 12.433594 21.941406 12.097656 Z M 21.941406 12.097656 "/>
<path style=" stroke:none;fill-rule:evenodd;fill:rgb(15.294118%,21.568627%,31.372549%);fill-opacity:1;" d="M 27.738281 12.007812 C 27.554688 12.191406 27.371094 12.375 27.1875 12.558594 C 27.132812 12.441406 27.085938 12.320312 27.046875 12.191406 C 26.980469 12.355469 26.871094 12.480469 26.726562 12.558594 C 26.878906 12.171875 27.09375 11.820312 27.371094 11.5 C 27.5625 11.425781 27.746094 11.441406 27.921875 11.546875 C 27.835938 11.691406 27.773438 11.84375 27.738281 12.007812 Z M 27.738281 12.007812 "/>
<path style=" stroke:none;fill-rule:evenodd;fill:rgb(10.588235%,19.215686%,33.72549%);fill-opacity:1;" d="M 23.964844 11.914062 C 23.964844 12.097656 23.964844 12.28125 23.964844 12.464844 C 24.058594 12.464844 24.148438 12.464844 24.242188 12.464844 C 24.238281 12.660156 24.332031 12.785156 24.519531 12.835938 C 24.605469 12.976562 24.664062 13.128906 24.703125 13.292969 C 24.707031 13.34375 24.738281 13.375 24.792969 13.386719 C 24.886719 12.777344 24.917969 12.164062 24.886719 11.546875 C 25.007812 11.546875 25.132812 11.546875 25.253906 11.546875 C 25.359375 12.417969 25.375 13.308594 25.300781 14.214844 C 25.015625 14.347656 24.757812 14.316406 24.519531 14.121094 C 24.386719 13.722656 24.203125 13.355469 23.964844 13.019531 C 23.921875 12.804688 23.828125 12.621094 23.691406 12.464844 C 23.695312 12.351562 23.648438 12.257812 23.550781 12.191406 C 23.507812 12.863281 23.492188 13.539062 23.507812 14.214844 C 23.382812 14.214844 23.261719 14.214844 23.136719 14.214844 C 23.136719 13.324219 23.136719 12.433594 23.136719 11.546875 C 23.546875 11.355469 23.820312 11.476562 23.964844 11.914062 Z M 23.964844 11.914062 "/>
<path style=" stroke:none;fill-rule:evenodd;fill:rgb(23.529412%,28.235294%,28.235294%);fill-opacity:1;" d="M 23.964844 11.914062 C 24.195312 12.1875 24.378906 12.496094 24.519531 12.835938 C 24.332031 12.785156 24.238281 12.660156 24.242188 12.464844 C 24.148438 12.464844 24.058594 12.464844 23.964844 12.464844 C 23.964844 12.28125 23.964844 12.097656 23.964844 11.914062 Z M 23.964844 11.914062 "/>
<path style=" stroke:none;fill-rule:evenodd;fill:rgb(47.45098%,45.098039%,35.686275%);fill-opacity:1;" d="M 21.023438 11.546875 C 21.25 11.441406 21.496094 11.425781 21.757812 11.5 C 21.828125 11.5625 21.859375 11.636719 21.851562 11.730469 C 21.605469 11.566406 21.328125 11.507812 21.023438 11.546875 Z M 21.023438 11.546875 "/>
<path style=" stroke:none;fill-rule:evenodd;fill:rgb(52.54902%,52.941176%,35.294118%);fill-opacity:1;" d="M 21.664062 12.925781 C 21.636719 12.925781 21.605469 12.925781 21.574219 12.925781 C 21.574219 12.894531 21.574219 12.863281 21.574219 12.835938 C 21.539062 12.679688 21.492188 12.527344 21.4375 12.375 C 21.363281 12.273438 21.289062 12.273438 21.207031 12.375 C 21.25 12.066406 21.355469 12.039062 21.527344 12.28125 C 21.617188 12.488281 21.664062 12.703125 21.664062 12.925781 Z M 21.664062 12.925781 "/>
<path style=" stroke:none;fill-rule:evenodd;fill:rgb(47.058824%,47.45098%,38.431373%);fill-opacity:1;" d="M 25.253906 11.453125 C 25.253906 11.484375 25.253906 11.515625 25.253906 11.546875 C 25.132812 11.546875 25.007812 11.546875 24.886719 11.546875 C 24.917969 12.164062 24.886719 12.777344 24.792969 13.386719 C 24.738281 13.375 24.707031 13.34375 24.703125 13.292969 C 24.792969 12.699219 24.824219 12.085938 24.792969 11.453125 C 24.949219 11.453125 25.101562 11.453125 25.253906 11.453125 Z M 25.253906 11.453125 "/>
<path style=" stroke:none;fill-rule:evenodd;fill:rgb(89.411765%,79.607843%,50.196078%);fill-opacity:1;" d="M 25.253906 11.546875 C 25.253906 11.515625 25.253906 11.484375 25.253906 11.453125 C 25.375 11.894531 25.4375 12.371094 25.4375 12.878906 C 25.421875 13.355469 25.40625 13.832031 25.390625 14.304688 C 25.140625 14.40625 24.878906 14.421875 24.609375 14.351562 C 24.539062 14.289062 24.511719 14.214844 24.519531 14.121094 C 24.757812 14.316406 25.015625 14.347656 25.300781 14.214844 C 25.375 13.308594 25.359375 12.417969 25.253906 11.546875 Z M 25.253906 11.546875 "/>
<path style=" stroke:none;fill-rule:evenodd;fill:rgb(73.333333%,65.882353%,41.176471%);fill-opacity:1;" d="M 26.449219 11.546875 C 26.296875 11.546875 26.144531 11.546875 25.988281 11.546875 C 25.988281 12.464844 25.988281 13.386719 25.988281 14.304688 C 25.898438 13.371094 25.867188 12.421875 25.898438 11.453125 C 26.105469 11.425781 26.289062 11.457031 26.449219 11.546875 Z M 26.449219 11.546875 "/>
<path style=" stroke:none;fill-rule:evenodd;fill:rgb(6.666667%,14.117647%,25.490196%);fill-opacity:1;" d="M 26.449219 11.546875 C 26.449219 12.066406 26.449219 12.589844 26.449219 13.109375 C 26.359375 12.667969 26.328125 12.207031 26.359375 11.730469 C 26.265625 11.730469 26.175781 11.730469 26.082031 11.730469 C 26.082031 12.464844 26.082031 13.203125 26.082031 13.9375 C 26.308594 13.902344 26.367188 13.964844 26.265625 14.121094 C 26.308594 14.195312 26.371094 14.226562 26.449219 14.214844 C 26.320312 14.300781 26.167969 14.332031 25.988281 14.304688 C 25.988281 13.386719 25.988281 12.464844 25.988281 11.546875 C 26.144531 11.546875 26.296875 11.546875 26.449219 11.546875 Z M 26.449219 11.546875 "/>
<path style=" stroke:none;fill-rule:evenodd;fill:rgb(86.27451%,80%,44.313725%);fill-opacity:1;" d="M 21.574219 12.835938 C 21.34375 12.59375 21.191406 12.65625 21.113281 13.019531 C 21.191406 13.046875 21.265625 13.078125 21.34375 13.109375 C 21.46875 13.09375 21.546875 13.03125 21.574219 12.925781 C 21.605469 12.925781 21.636719 12.925781 21.664062 12.925781 C 21.664062 13.019531 21.664062 13.109375 21.664062 13.203125 C 21.453125 13.203125 21.238281 13.203125 21.023438 13.203125 C 21.027344 12.941406 21.089844 12.695312 21.207031 12.464844 C 21.207031 12.433594 21.207031 12.40625 21.207031 12.375 C 21.289062 12.273438 21.363281 12.273438 21.4375 12.375 C 21.492188 12.527344 21.539062 12.679688 21.574219 12.835938 Z M 21.574219 12.835938 "/>
<path style=" stroke:none;fill-rule:evenodd;fill:rgb(9.411765%,19.215686%,35.294118%);fill-opacity:1;" d="M 21.023438 11.546875 C 21.328125 11.507812 21.605469 11.566406 21.851562 11.730469 C 21.878906 11.851562 21.910156 11.976562 21.941406 12.097656 C 22.011719 12.433594 22.136719 12.742188 22.308594 13.019531 C 22.371094 13.261719 22.433594 13.507812 22.492188 13.753906 C 22.355469 13.96875 22.171875 14 21.941406 13.847656 C 21.800781 13.726562 21.617188 13.664062 21.390625 13.660156 C 21.207031 13.691406 21.023438 13.722656 20.839844 13.753906 C 20.773438 14.1875 20.527344 14.371094 20.101562 14.304688 C 20.132812 14.121094 20.164062 13.9375 20.195312 13.753906 C 20.304688 13.609375 20.394531 13.457031 20.46875 13.292969 C 20.554688 13.230469 20.582031 13.136719 20.5625 13.019531 C 20.660156 13.03125 20.75 13.015625 20.839844 12.972656 C 20.742188 12.84375 20.726562 12.707031 20.792969 12.558594 C 20.90625 12.789062 20.953125 13.035156 20.929688 13.292969 C 21.207031 13.292969 21.480469 13.292969 21.757812 13.292969 C 21.78125 13.148438 21.75 13.023438 21.664062 12.925781 C 21.664062 12.703125 21.617188 12.488281 21.527344 12.28125 C 21.355469 12.039062 21.25 12.066406 21.207031 12.375 C 21.207031 12.40625 21.207031 12.433594 21.207031 12.464844 C 21.082031 12.464844 20.960938 12.464844 20.839844 12.464844 C 20.839844 12.375 20.839844 12.28125 20.839844 12.191406 C 20.898438 11.976562 20.960938 11.761719 21.023438 11.546875 Z M 21.023438 11.546875 "/>
<use xlink:href="#surface20" mask="url(#mask5)"/>
<path style=" stroke:none;fill-rule:evenodd;fill:rgb(19.215686%,25.490196%,30.588235%);fill-opacity:1;" d="M 20.839844 12.191406 C 20.839844 12.28125 20.839844 12.375 20.839844 12.464844 C 20.960938 12.464844 21.082031 12.464844 21.207031 12.464844 C 21.089844 12.695312 21.027344 12.941406 21.023438 13.203125 C 21.238281 13.203125 21.453125 13.203125 21.664062 13.203125 C 21.664062 13.109375 21.664062 13.019531 21.664062 12.925781 C 21.75 13.023438 21.78125 13.148438 21.757812 13.292969 C 21.480469 13.292969 21.207031 13.292969 20.929688 13.292969 C 20.953125 13.035156 20.90625 12.789062 20.792969 12.558594 C 20.726562 12.707031 20.742188 12.84375 20.839844 12.972656 C 20.75 13.015625 20.660156 13.03125 20.5625 13.019531 C 20.582031 13.136719 20.554688 13.230469 20.46875 13.292969 C 20.539062 12.902344 20.664062 12.535156 20.839844 12.191406 Z M 20.839844 12.191406 "/>
<path style=" stroke:none;fill-rule:evenodd;fill:rgb(97.647059%,76.470588%,24.313725%);fill-opacity:1;" d="M 21.574219 12.835938 C 21.574219 12.863281 21.574219 12.894531 21.574219 12.925781 C 21.546875 13.03125 21.46875 13.09375 21.34375 13.109375 C 21.265625 13.078125 21.191406 13.046875 21.113281 13.019531 C 21.191406 12.65625 21.34375 12.59375 21.574219 12.835938 Z M 21.574219 12.835938 "/>
<path style=" stroke:none;fill-rule:evenodd;fill:rgb(3.137255%,18.823529%,38.823529%);fill-opacity:1;" d="M 26.449219 13.109375 C 26.449219 13.476562 26.449219 13.847656 26.449219 14.214844 C 26.371094 14.226562 26.308594 14.195312 26.265625 14.121094 C 26.367188 13.964844 26.308594 13.902344 26.082031 13.9375 C 26.082031 13.203125 26.082031 12.464844 26.082031 11.730469 C 26.175781 11.730469 26.265625 11.730469 26.359375 11.730469 C 26.328125 12.207031 26.359375 12.667969 26.449219 13.109375 Z M 26.449219 13.109375 "/>
<use xlink:href="#surface23" mask="url(#mask6)"/>
<path style=" stroke:none;fill-rule:evenodd;fill:rgb(15.686275%,22.352941%,18.823529%);fill-opacity:1;" d="M 23.136719 11.546875 C 23.136719 12.433594 23.136719 13.324219 23.136719 14.214844 C 23.261719 14.214844 23.382812 14.214844 23.507812 14.214844 C 23.507812 14.246094 23.507812 14.273438 23.507812 14.304688 C 23.351562 14.304688 23.199219 14.304688 23.046875 14.304688 C 23.046875 13.417969 23.046875 12.527344 23.046875 11.636719 C 23.046875 11.578125 23.078125 11.546875 23.136719 11.546875 Z M 23.136719 11.546875 "/>
<path style=" stroke:none;fill-rule:evenodd;fill:rgb(30.980392%,35.294118%,37.647059%);fill-opacity:1;" d="M 26.449219 11.546875 C 26.527344 11.898438 26.570312 12.265625 26.589844 12.648438 C 26.625 12.597656 26.667969 12.566406 26.726562 12.558594 C 26.726562 12.742188 26.726562 12.925781 26.726562 13.109375 C 26.667969 13.101562 26.625 13.070312 26.589844 13.019531 C 26.570312 13.433594 26.527344 13.832031 26.449219 14.214844 C 26.449219 13.847656 26.449219 13.476562 26.449219 13.109375 C 26.449219 12.589844 26.449219 12.066406 26.449219 11.546875 Z M 26.449219 11.546875 "/>
<use xlink:href="#surface26" mask="url(#mask7)"/>
<path style=" stroke:none;fill-rule:evenodd;fill:rgb(66.666667%,62.745098%,40.392157%);fill-opacity:1;" d="M 23.691406 12.464844 C 23.628906 13.078125 23.566406 13.691406 23.507812 14.304688 C 23.507812 14.273438 23.507812 14.246094 23.507812 14.214844 C 23.492188 13.539062 23.507812 12.863281 23.550781 12.191406 C 23.648438 12.257812 23.695312 12.351562 23.691406 12.464844 Z M 23.691406 12.464844 "/>
<path style=" stroke:none;fill-rule:evenodd;fill:rgb(7.843137%,18.823529%,36.078431%);fill-opacity:1;" d="M 27.1875 12.558594 C 27.148438 12.628906 27.117188 12.703125 27.09375 12.789062 C 27.207031 12.945312 27.300781 13.117188 27.371094 13.292969 C 27.511719 13.554688 27.601562 13.832031 27.644531 14.121094 C 27.742188 14.109375 27.835938 14.125 27.921875 14.167969 C 27.773438 14.214844 27.617188 14.230469 27.460938 14.214844 C 27.371094 14.0625 27.25 13.941406 27.09375 13.847656 C 27.011719 13.578125 26.886719 13.335938 26.726562 13.109375 C 26.726562 12.925781 26.726562 12.742188 26.726562 12.558594 C 26.871094 12.480469 26.980469 12.355469 27.046875 12.191406 C 27.085938 12.320312 27.132812 12.441406 27.1875 12.558594 Z M 27.1875 12.558594 "/>
<path style=" stroke:none;fill-rule:evenodd;fill:rgb(2.745098%,20.392157%,40%);fill-opacity:1;" d="M 36.203125 14.675781 C 36.328125 14.984375 36.542969 15.214844 36.847656 15.363281 C 36.5625 15.441406 36.347656 15.347656 36.203125 15.089844 C 35.953125 15.070312 35.707031 15.023438 35.464844 14.949219 C 35.515625 14.886719 35.574219 14.839844 35.648438 14.8125 C 35.605469 14.796875 35.558594 14.78125 35.511719 14.765625 C 35.308594 14.914062 35.078125 14.976562 34.820312 14.949219 C 34.820312 14.828125 34.820312 14.703125 34.820312 14.582031 C 34.519531 14.609375 34.242188 14.546875 33.992188 14.398438 C 33.902344 14.414062 33.839844 14.382812 33.808594 14.304688 C 33.804688 14.207031 33.777344 14.113281 33.71875 14.03125 C 33.425781 13.949219 33.179688 13.796875 32.980469 13.570312 C 33.066406 13.453125 33.082031 13.332031 33.027344 13.203125 C 32.78125 13.136719 32.644531 12.980469 32.613281 12.742188 C 32.796875 12.804688 32.980469 12.863281 33.164062 12.925781 C 33.164062 13.019531 33.164062 13.109375 33.164062 13.203125 C 33.378906 13.203125 33.59375 13.203125 33.808594 13.203125 C 33.816406 13.394531 33.90625 13.53125 34.085938 13.617188 C 34.449219 13.667969 34.789062 13.792969 35.097656 13.984375 C 35.382812 14.34375 35.75 14.574219 36.203125 14.675781 Z M 36.203125 14.675781 "/>
<path style=" stroke:none;fill-rule:evenodd;fill:rgb(18.039216%,25.098039%,29.411765%);fill-opacity:1;" d="M 22.492188 13.753906 C 22.523438 13.753906 22.554688 13.753906 22.585938 13.753906 C 22.617188 13.9375 22.648438 14.121094 22.679688 14.304688 C 22.355469 14.367188 22.113281 14.277344 21.941406 14.03125 C 21.941406 13.96875 21.941406 13.90625 21.941406 13.847656 C 22.171875 14 22.355469 13.96875 22.492188 13.753906 Z M 22.492188 13.753906 "/>
<path style=" stroke:none;fill-rule:evenodd;fill:rgb(20.392157%,22.352941%,25.490196%);fill-opacity:1;" d="M 27.371094 13.292969 C 27.65625 13.589844 27.871094 13.925781 28.015625 14.304688 C 27.808594 14.332031 27.625 14.300781 27.460938 14.214844 C 27.617188 14.230469 27.773438 14.214844 27.921875 14.167969 C 27.835938 14.125 27.742188 14.109375 27.644531 14.121094 C 27.601562 13.832031 27.511719 13.554688 27.371094 13.292969 Z M 27.371094 13.292969 "/>
<path style=" stroke:none;fill-rule:evenodd;fill:rgb(92.54902%,78.823529%,34.117647%);fill-opacity:1;" d="M 20.195312 13.753906 C 20.164062 13.9375 20.132812 14.121094 20.101562 14.304688 C 20.527344 14.371094 20.773438 14.1875 20.839844 13.753906 C 21.023438 13.722656 21.207031 13.691406 21.390625 13.660156 C 21.617188 13.664062 21.800781 13.726562 21.941406 13.847656 C 21.738281 13.765625 21.523438 13.734375 21.296875 13.753906 C 21.175781 13.753906 21.050781 13.753906 20.929688 13.753906 C 20.945312 13.878906 20.929688 14.003906 20.882812 14.121094 C 20.535156 14.527344 20.136719 14.589844 19.6875 14.304688 C 19.097656 14.496094 18.5 14.527344 17.894531 14.398438 C 17.789062 13.421875 17.773438 12.441406 17.847656 11.453125 C 18.191406 11.367188 18.542969 11.335938 18.90625 11.363281 C 18.90625 11.269531 18.90625 11.179688 18.90625 11.085938 C 19.117188 11.132812 19.332031 11.160156 19.550781 11.179688 C 19.53125 11.285156 19.558594 11.378906 19.640625 11.453125 C 19.765625 11.484375 19.886719 11.515625 20.011719 11.546875 C 19.941406 11.878906 19.878906 12.21875 19.824219 12.558594 C 19.90625 12.777344 20.011719 12.777344 20.148438 12.558594 C 20.164062 12.777344 20.117188 12.992188 20.011719 13.203125 C 20.019531 13.414062 20.082031 13.597656 20.195312 13.753906 Z M 20.195312 13.753906 "/>
<path style=" stroke:none;fill-rule:evenodd;fill:rgb(16.078431%,22.352941%,30.980392%);fill-opacity:1;" d="M 19.273438 11.636719 C 19.246094 12.023438 19.277344 12.394531 19.367188 12.742188 C 19.511719 12.800781 19.632812 12.894531 19.734375 13.019531 C 19.652344 13.007812 19.59375 13.035156 19.550781 13.109375 C 19.617188 13.222656 19.648438 13.347656 19.640625 13.476562 C 19.550781 13.476562 19.457031 13.476562 19.367188 13.476562 C 19.34375 13.304688 19.253906 13.179688 19.089844 13.109375 C 18.925781 13.023438 18.742188 12.992188 18.539062 13.019531 C 18.546875 12.960938 18.578125 12.914062 18.628906 12.878906 C 18.5 12.835938 18.390625 12.761719 18.308594 12.648438 C 18.195312 11.3125 18.121094 11.328125 18.078125 12.695312 C 18.058594 13.191406 18.121094 13.667969 18.261719 14.121094 C 18.445312 14.152344 18.566406 14.09375 18.628906 13.9375 C 18.851562 13.960938 19.035156 13.898438 19.183594 13.753906 C 19.242188 13.722656 19.304688 13.691406 19.367188 13.660156 C 19.378906 13.761719 19.4375 13.824219 19.550781 13.847656 C 19.789062 13.707031 19.878906 13.492188 19.824219 13.203125 C 20.007812 13.625 19.882812 13.949219 19.457031 14.167969 C 18.953125 14.328125 18.449219 14.34375 17.941406 14.214844 C 17.878906 13.324219 17.878906 12.433594 17.941406 11.546875 C 18.132812 11.488281 18.332031 11.457031 18.539062 11.453125 C 18.816406 11.433594 19.0625 11.496094 19.273438 11.636719 Z M 19.273438 11.636719 "/>
<path style=" stroke:none;fill-rule:evenodd;fill:rgb(5.882353%,18.431373%,38.823529%);fill-opacity:1;" d="M 19.734375 13.019531 C 19.765625 13.019531 19.796875 13.019531 19.824219 13.019531 C 19.824219 13.078125 19.824219 13.140625 19.824219 13.203125 C 19.878906 13.492188 19.789062 13.707031 19.550781 13.847656 C 19.4375 13.824219 19.378906 13.761719 19.367188 13.660156 C 19.367188 13.601562 19.367188 13.539062 19.367188 13.476562 C 19.457031 13.476562 19.550781 13.476562 19.640625 13.476562 C 19.648438 13.347656 19.617188 13.222656 19.550781 13.109375 C 19.59375 13.035156 19.652344 13.007812 19.734375 13.019531 Z M 19.734375 13.019531 "/>
<path style=" stroke:none;fill-rule:evenodd;fill:rgb(94.117647%,76.862745%,31.764706%);fill-opacity:1;" d="M 19.089844 13.109375 C 19.253906 13.179688 19.34375 13.304688 19.367188 13.476562 C 19.367188 13.539062 19.367188 13.601562 19.367188 13.660156 C 19.304688 13.691406 19.242188 13.722656 19.183594 13.753906 C 18.96875 13.753906 18.753906 13.753906 18.539062 13.753906 C 18.539062 13.539062 18.539062 13.324219 18.539062 13.109375 C 18.722656 13.109375 18.90625 13.109375 19.089844 13.109375 Z M 19.089844 13.109375 "/>
<path style=" stroke:none;fill-rule:evenodd;fill:rgb(64.313725%,61.568627%,40.784314%);fill-opacity:1;" d="M 18.539062 13.019531 C 18.742188 12.992188 18.925781 13.023438 19.089844 13.109375 C 18.90625 13.109375 18.722656 13.109375 18.539062 13.109375 C 18.539062 13.324219 18.539062 13.539062 18.539062 13.753906 C 18.753906 13.753906 18.96875 13.753906 19.183594 13.753906 C 19.035156 13.898438 18.851562 13.960938 18.628906 13.9375 C 18.511719 13.828125 18.449219 13.675781 18.445312 13.476562 C 18.445312 13.304688 18.476562 13.152344 18.539062 13.019531 Z M 18.539062 13.019531 "/>
<path style=" stroke:none;fill-rule:evenodd;fill:rgb(77.647059%,72.156863%,48.235294%);fill-opacity:1;" d="M 19.640625 12.558594 C 19.703125 12.710938 19.765625 12.863281 19.824219 13.019531 C 19.796875 13.019531 19.765625 13.019531 19.734375 13.019531 C 19.632812 12.894531 19.511719 12.800781 19.367188 12.742188 C 19.457031 12.679688 19.550781 12.621094 19.640625 12.558594 Z M 19.640625 12.558594 "/>
<path style=" stroke:none;fill-rule:evenodd;fill:rgb(5.490196%,18.823529%,39.607843%);fill-opacity:1;" d="M 18.539062 13.019531 C 18.476562 13.152344 18.445312 13.304688 18.445312 13.476562 C 18.449219 13.675781 18.511719 13.828125 18.628906 13.9375 C 18.566406 14.09375 18.445312 14.152344 18.261719 14.121094 C 18.121094 13.667969 18.058594 13.191406 18.078125 12.695312 C 18.121094 11.328125 18.195312 11.3125 18.308594 12.648438 C 18.390625 12.761719 18.5 12.835938 18.628906 12.878906 C 18.578125 12.914062 18.546875 12.960938 18.539062 13.019531 Z M 18.539062 13.019531 "/>
<path style=" stroke:none;fill-rule:evenodd;fill:rgb(9.411765%,17.254902%,34.901961%);fill-opacity:1;" d="M 19.273438 11.636719 C 19.449219 11.621094 19.585938 11.679688 19.6875 11.820312 C 19.742188 12.074219 19.726562 12.316406 19.640625 12.558594 C 19.550781 12.621094 19.457031 12.679688 19.367188 12.742188 C 19.277344 12.394531 19.246094 12.023438 19.273438 11.636719 Z M 19.273438 11.636719 "/>
<path style=" stroke:none;fill-rule:evenodd;fill:rgb(81.960784%,75.294118%,44.313725%);fill-opacity:1;" d="M 18.445312 11.914062 C 19.039062 11.792969 19.253906 12.007812 19.089844 12.558594 C 18.882812 12.648438 18.667969 12.679688 18.445312 12.648438 C 18.445312 12.40625 18.445312 12.160156 18.445312 11.914062 Z M 18.445312 11.914062 "/>
<path style=" stroke:none;fill-rule:evenodd;fill:rgb(96.078431%,78.823529%,28.235294%);fill-opacity:1;" d="M 18.539062 12.007812 C 18.945312 11.964844 19.097656 12.148438 18.996094 12.558594 C 18.84375 12.558594 18.691406 12.558594 18.539062 12.558594 C 18.539062 12.375 18.539062 12.191406 18.539062 12.007812 Z M 18.539062 12.007812 "/>
<path style=" stroke:none;fill-rule:evenodd;fill:rgb(83.921569%,77.647059%,39.215686%);fill-opacity:1;" d="M 27.09375 13.847656 C 27.25 13.941406 27.371094 14.0625 27.460938 14.214844 C 27.625 14.300781 27.808594 14.332031 28.015625 14.304688 C 27.71875 14.4375 27.425781 14.40625 27.140625 14.214844 C 27.09375 14.09375 27.078125 13.972656 27.09375 13.847656 Z M 27.09375 13.847656 "/>
<path style=" stroke:none;fill-rule:evenodd;fill:rgb(92.156863%,78.823529%,35.686275%);fill-opacity:1;" d="M 23.046875 11.636719 C 23.046875 12.527344 23.046875 13.417969 23.046875 14.304688 C 23.199219 14.304688 23.351562 14.304688 23.507812 14.304688 C 23.566406 13.691406 23.628906 13.078125 23.691406 12.464844 C 23.828125 12.621094 23.921875 12.804688 23.964844 13.019531 C 23.875 13.011719 23.796875 13.039062 23.734375 13.109375 C 23.691406 13.570312 23.675781 14.027344 23.691406 14.488281 C 23.109375 14.410156 22.527344 14.410156 21.941406 14.488281 C 21.941406 14.335938 21.941406 14.183594 21.941406 14.03125 C 22.113281 14.277344 22.355469 14.367188 22.679688 14.304688 C 22.648438 14.121094 22.617188 13.9375 22.585938 13.753906 C 22.730469 13.863281 22.808594 14.015625 22.816406 14.214844 C 22.855469 13.339844 22.929688 12.480469 23.046875 11.636719 Z M 23.046875 11.636719 "/>
<use xlink:href="#surface29" mask="url(#mask8)"/>
<path style=" stroke:none;fill-rule:evenodd;fill:rgb(98.431373%,74.901961%,25.490196%);fill-opacity:1;" d="M 34.914062 15.132812 C 35.179688 15.222656 35.394531 15.375 35.558594 15.59375 C 35.417969 15.59375 35.3125 15.53125 35.234375 15.410156 C 31.160156 15.53125 27.066406 15.59375 22.953125 15.59375 C 18.875 15.5625 14.796875 15.53125 10.71875 15.503906 C 10.796875 15.417969 10.890625 15.355469 10.992188 15.316406 C 11.125 15.3125 11.25 15.339844 11.363281 15.410156 C 11.566406 15.269531 11.796875 15.207031 12.050781 15.226562 C 19.375 15.273438 26.691406 15.273438 33.992188 15.226562 C 34.207031 15.214844 34.390625 15.273438 34.546875 15.410156 C 34.726562 15.382812 34.851562 15.289062 34.914062 15.132812 Z M 34.914062 15.132812 "/>
<use xlink:href="#surface32" mask="url(#mask9)"/>
<use xlink:href="#surface35" mask="url(#mask10)"/>
<path style=" stroke:none;fill-rule:evenodd;fill:rgb(94.117647%,79.607843%,24.313725%);fill-opacity:1;" d="M 10.992188 15.042969 C 11.023438 15.042969 11.054688 15.042969 11.085938 15.042969 C 11.03125 15.125 11 15.214844 10.992188 15.316406 C 10.890625 15.355469 10.796875 15.417969 10.71875 15.503906 C 14.796875 15.53125 18.875 15.5625 22.953125 15.59375 C 27.066406 15.59375 31.160156 15.53125 35.234375 15.410156 C 35.3125 15.53125 35.417969 15.59375 35.558594 15.59375 C 27.171875 15.703125 18.769531 15.714844 10.351562 15.640625 C 10.402344 15.605469 10.433594 15.558594 10.441406 15.503906 C 10.589844 15.304688 10.773438 15.152344 10.992188 15.042969 Z M 10.992188 15.042969 "/>
<path style=" stroke:none;fill-rule:evenodd;fill:rgb(6.27451%,21.176471%,39.215686%);fill-opacity:1;" d="M 10.992188 15.042969 C 10.773438 15.152344 10.589844 15.304688 10.441406 15.503906 C 10.296875 15.523438 10.175781 15.585938 10.074219 15.6875 C 10.023438 15.691406 9.992188 15.722656 9.980469 15.777344 C 18.644531 15.902344 27.292969 15.902344 35.925781 15.777344 C 35.972656 15.675781 36.003906 15.566406 36.019531 15.457031 C 35.855469 15.4375 35.703125 15.390625 35.558594 15.316406 C 35.949219 15.160156 36.195312 15.28125 36.292969 15.6875 C 36.550781 15.703125 36.796875 15.765625 37.03125 15.871094 C 37.03125 15.777344 37.03125 15.6875 37.03125 15.59375 C 37.371094 15.605469 37.679688 15.695312 37.949219 15.871094 C 38.042969 15.902344 38.101562 15.960938 38.132812 16.054688 C 38.132812 16.207031 38.132812 16.359375 38.132812 16.515625 C 37.886719 16.410156 37.824219 16.484375 37.949219 16.742188 C 36.675781 16.757812 35.417969 16.804688 34.179688 16.882812 C 34.054688 18.828125 33.992188 20.804688 33.992188 22.816406 C 34.042969 25.867188 34.042969 28.921875 33.992188 31.96875 C 33.996094 32.738281 34.054688 33.476562 34.179688 34.179688 C 35.296875 34.253906 36.429688 34.300781 37.582031 34.316406 C 37.632812 34.382812 37.695312 34.429688 37.765625 34.453125 C 37.734375 35.207031 37.765625 35.941406 37.859375 36.660156 C 38.394531 36.738281 38.945312 36.785156 39.515625 36.800781 C 39.609375 36.847656 39.699219 36.894531 39.789062 36.9375 C 39.914062 37.917969 39.914062 38.902344 39.789062 39.882812 C 39.730469 39.914062 39.667969 39.945312 39.605469 39.972656 C 39.367188 40.042969 39.121094 40.074219 38.871094 40.066406 C 39.273438 39.832031 39.332031 39.523438 39.054688 39.144531 C 38.847656 38.722656 38.816406 38.277344 38.960938 37.8125 C 38.90625 37.769531 38.847656 37.753906 38.777344 37.765625 C 28.230469 37.582031 17.648438 37.519531 7.039062 37.582031 C 7.082031 38.152344 7.019531 38.707031 6.855469 39.238281 C 6.5625 39.636719 6.65625 39.914062 7.128906 40.066406 C 17.617188 40.15625 28.410156 40.1875 39.515625 40.15625 C 28.472656 40.28125 17.433594 40.28125 6.394531 40.15625 C 6.332031 40.035156 6.242188 39.945312 6.117188 39.882812 C 5.996094 38.902344 5.996094 37.917969 6.117188 36.9375 C 6.242188 36.875 6.332031 36.785156 6.394531 36.660156 C 6.425781 36.660156 6.457031 36.660156 6.484375 36.660156 C 7.007812 36.660156 7.527344 36.660156 8.050781 36.660156 C 8.050781 36.078125 8.050781 35.496094 8.050781 34.914062 C 8.023438 34.738281 8.054688 34.585938 8.140625 34.453125 C 8.214844 34.429688 8.277344 34.382812 8.324219 34.316406 C 9.476562 34.300781 10.609375 34.253906 11.730469 34.179688 C 11.730469 28.414062 11.730469 22.648438 11.730469 16.882812 C 10.488281 16.789062 9.230469 16.757812 7.957031 16.789062 C 7.867188 16.796875 7.789062 16.765625 7.726562 16.699219 C 7.628906 16.074219 7.890625 15.675781 8.511719 15.503906 C 8.683594 15.480469 8.808594 15.386719 8.878906 15.226562 C 9.019531 15.234375 9.109375 15.171875 9.152344 15.042969 C 9.558594 14.855469 9.988281 14.765625 10.441406 14.765625 C 10.453125 14.554688 10.527344 14.371094 10.671875 14.214844 C 10.871094 14.136719 11.007812 14 11.085938 13.800781 C 11.636719 13.703125 12.109375 13.472656 12.511719 13.109375 C 12.699219 13.160156 12.773438 13.28125 12.742188 13.476562 C 12.261719 13.421875 12.03125 13.636719 12.050781 14.121094 C 11.925781 14.023438 11.785156 14.007812 11.636719 14.074219 C 11.539062 14.265625 11.386719 14.386719 11.179688 14.445312 C 10.910156 14.589844 10.851562 14.789062 10.992188 15.042969 Z M 25.714844 34.179688 C 23.875 34.074219 22.035156 34.074219 20.195312 34.179688 C 20.101562 31.332031 20.070312 28.480469 20.101562 25.621094 C 22.003906 25.621094 23.90625 25.621094 25.804688 25.621094 C 25.835938 28.480469 25.804688 31.332031 25.714844 34.179688 Z M 25.714844 34.179688 "/>
<path style=" stroke:none;fill-rule:evenodd;fill:rgb(40.392157%,40.784314%,36.862745%);fill-opacity:1;" d="M 10.074219 15.6875 C 18.660156 15.808594 27.246094 15.808594 35.835938 15.6875 C 35.894531 15.6875 35.925781 15.714844 35.925781 15.777344 C 27.292969 15.902344 18.644531 15.902344 9.980469 15.777344 C 9.992188 15.722656 10.023438 15.691406 10.074219 15.6875 Z M 10.074219 15.6875 "/>
<path style=" stroke:none;fill-rule:evenodd;fill:rgb(89.019608%,82.745098%,42.745098%);fill-opacity:1;" d="M 10.441406 15.503906 C 10.433594 15.558594 10.402344 15.605469 10.351562 15.640625 C 18.769531 15.714844 27.171875 15.703125 35.558594 15.59375 C 35.660156 15.597656 35.753906 15.628906 35.835938 15.6875 C 27.246094 15.808594 18.660156 15.808594 10.074219 15.6875 C 10.175781 15.585938 10.296875 15.523438 10.441406 15.503906 Z M 10.441406 15.503906 "/>
<path style=" stroke:none;fill-rule:evenodd;fill:rgb(13.72549%,25.490196%,36.862745%);fill-opacity:1;" d="M 30.589844 16.789062 C 30.589844 16.820312 30.589844 16.851562 30.589844 16.882812 C 25.5 16.882812 20.410156 16.882812 15.316406 16.882812 C 15.316406 16.730469 15.316406 16.574219 15.316406 16.421875 C 15.121094 16.433594 14.9375 16.386719 14.765625 16.285156 C 14.65625 16.203125 14.65625 16.125 14.765625 16.054688 C 15.128906 16.164062 15.496094 16.257812 15.871094 16.328125 C 15.945312 16.300781 16.003906 16.253906 16.054688 16.191406 C 20.675781 16.117188 25.292969 16.132812 29.898438 16.238281 C 29.929688 16.164062 29.972656 16.101562 30.039062 16.054688 C 30.109375 16.167969 30.15625 16.289062 30.175781 16.421875 C 30.214844 16.3125 30.277344 16.222656 30.359375 16.144531 C 30.394531 16.378906 30.472656 16.59375 30.589844 16.789062 Z M 30.589844 16.789062 "/>
<path style=" stroke:none;fill-rule:evenodd;fill:rgb(2.352941%,19.607843%,41.568627%);fill-opacity:1;" d="M 30.589844 16.789062 C 30.472656 16.59375 30.394531 16.378906 30.359375 16.144531 C 30.277344 16.222656 30.214844 16.3125 30.175781 16.421875 C 30.15625 16.289062 30.109375 16.167969 30.039062 16.054688 C 29.972656 16.101562 29.929688 16.164062 29.898438 16.238281 C 25.292969 16.132812 20.675781 16.117188 16.054688 16.191406 C 16.003906 16.253906 15.945312 16.300781 15.871094 16.328125 C 15.496094 16.257812 15.128906 16.164062 14.765625 16.054688 C 14.65625 16.125 14.65625 16.203125 14.765625 16.285156 C 14.9375 16.386719 15.121094 16.433594 15.316406 16.421875 C 15.316406 16.574219 15.316406 16.730469 15.316406 16.882812 C 15.183594 16.859375 15.058594 16.886719 14.949219 16.972656 C 15.050781 17.042969 15.113281 17.136719 15.132812 17.25 C 15.011719 17.25 14.886719 17.25 14.765625 17.25 C 14.78125 17.03125 14.765625 16.820312 14.71875 16.605469 C 14.683594 16.5625 14.636719 16.535156 14.582031 16.515625 C 14.503906 17.863281 14.460938 19.210938 14.445312 20.5625 C 14.457031 19.300781 14.382812 18.074219 14.214844 16.882812 C 14.214844 16.851562 14.214844 16.820312 14.214844 16.789062 C 14.207031 16.535156 14.082031 16.351562 13.847656 16.238281 C 13.972656 16.128906 13.957031 16.066406 13.800781 16.054688 C 13.648438 16.117188 13.492188 16.175781 13.339844 16.238281 C 12.800781 16.109375 12.261719 16.046875 11.730469 16.054688 C 11.667969 16.085938 11.605469 16.117188 11.546875 16.144531 C 12 16.34375 12.304688 16.683594 12.464844 17.15625 C 12.324219 17.246094 12.171875 17.277344 12.007812 17.25 C 12.023438 17.058594 11.992188 16.875 11.914062 16.699219 C 11.699219 16.601562 11.515625 16.460938 11.363281 16.285156 C 11.019531 16.269531 10.683594 16.222656 10.351562 16.144531 C 10.496094 16.074219 10.648438 16.027344 10.808594 16.007812 C 17.527344 15.929688 24.242188 15.945312 30.957031 16.054688 C 30.847656 16.140625 30.726562 16.171875 30.589844 16.144531 C 30.589844 16.238281 30.589844 16.328125 30.589844 16.421875 C 30.769531 16.445312 30.941406 16.414062 31.097656 16.328125 C 31.140625 16.417969 31.15625 16.507812 31.140625 16.605469 C 30.957031 16.667969 30.773438 16.730469 30.589844 16.789062 Z M 30.589844 16.789062 "/>
<use xlink:href="#surface38" mask="url(#mask11)"/>
<path style=" stroke:none;fill-rule:evenodd;fill:rgb(1.960784%,19.215686%,39.215686%);fill-opacity:1;" d="M 16.054688 16.328125 C 20.652344 16.328125 25.253906 16.328125 29.855469 16.328125 C 29.855469 16.421875 29.855469 16.515625 29.855469 16.605469 C 30.019531 16.578125 30.171875 16.609375 30.3125 16.699219 C 25.40625 16.820312 20.5 16.820312 15.59375 16.699219 C 15.734375 16.609375 15.890625 16.578125 16.054688 16.605469 C 16.054688 16.515625 16.054688 16.421875 16.054688 16.328125 Z M 16.054688 16.328125 "/>
<use xlink:href="#surface41" mask="url(#mask12)"/>
<use xlink:href="#surface44" mask="url(#mask13)"/>
<use xlink:href="#surface47" mask="url(#mask14)"/>
<path style=" stroke:none;fill-rule:evenodd;fill:rgb(49.411765%,48.627451%,31.372549%);fill-opacity:1;" d="M 14.214844 16.789062 C 14.214844 16.820312 14.214844 16.851562 14.214844 16.882812 C 13.734375 16.851562 13.277344 16.882812 12.835938 16.972656 C 12.835938 22.707031 12.835938 28.445312 12.835938 34.179688 C 13.171875 34.179688 13.507812 34.179688 13.847656 34.179688 C 13.96875 34.179688 14.089844 34.179688 14.214844 34.179688 C 13.742188 34.269531 13.25 34.300781 12.742188 34.269531 C 12.742188 28.445312 12.742188 22.617188 12.742188 16.789062 C 13.234375 16.789062 13.722656 16.789062 14.214844 16.789062 Z M 14.214844 16.789062 "/>
<path style=" stroke:none;fill-rule:evenodd;fill:rgb(93.72549%,81.960784%,40.392157%);fill-opacity:1;" d="M 12.835938 16.972656 C 12.863281 16.972656 12.894531 16.972656 12.925781 16.972656 C 12.925781 22.679688 12.925781 28.382812 12.925781 34.085938 C 13.234375 34.085938 13.539062 34.085938 13.847656 34.085938 C 13.847656 34.117188 13.847656 34.148438 13.847656 34.179688 C 13.507812 34.179688 13.171875 34.179688 12.835938 34.179688 C 12.835938 28.445312 12.835938 22.707031 12.835938 16.972656 Z M 12.835938 16.972656 "/>
<path style=" stroke:none;fill-rule:evenodd;fill:rgb(50.588235%,50.588235%,31.764706%);fill-opacity:1;" d="M 33.074219 16.882812 C 33.164062 22.664062 33.195312 28.457031 33.164062 34.269531 C 32.65625 34.300781 32.167969 34.269531 31.695312 34.179688 C 32.152344 34.179688 32.613281 34.179688 33.074219 34.179688 C 33.074219 28.414062 33.074219 22.648438 33.074219 16.882812 Z M 33.074219 16.882812 "/>
<use xlink:href="#surface50" mask="url(#mask15)"/>
<path style=" stroke:none;fill-rule:evenodd;fill:rgb(97.254902%,75.686275%,24.705882%);fill-opacity:1;" d="M 12.925781 16.972656 C 13.324219 16.972656 13.722656 16.972656 14.121094 16.972656 C 14.121094 22.679688 14.121094 28.382812 14.121094 34.085938 C 14.03125 34.085938 13.9375 34.085938 13.847656 34.085938 C 13.539062 34.085938 13.234375 34.085938 12.925781 34.085938 C 12.925781 28.382812 12.925781 22.679688 12.925781 16.972656 Z M 12.925781 16.972656 "/>
<path style=" stroke:none;fill-rule:evenodd;fill:rgb(15.294118%,20.392157%,31.764706%);fill-opacity:1;" d="M 30.589844 16.882812 C 30.65625 16.921875 30.703125 16.980469 30.726562 17.066406 C 30.789062 22.464844 30.789062 27.859375 30.726562 33.257812 C 30.710938 33.582031 30.664062 33.890625 30.589844 34.179688 C 30.589844 28.414062 30.589844 22.648438 30.589844 16.882812 Z M 30.589844 16.882812 "/>
<path style=" stroke:none;fill-rule:evenodd;fill:rgb(15.294118%,20.784314%,30.588235%);fill-opacity:1;" d="M 15.316406 16.882812 C 15.316406 22.648438 15.316406 28.414062 15.316406 34.179688 C 15.242188 33.890625 15.195312 33.582031 15.179688 33.257812 C 15.132812 27.921875 15.117188 22.585938 15.132812 17.25 C 15.113281 17.136719 15.050781 17.042969 14.949219 16.972656 C 15.058594 16.886719 15.183594 16.859375 15.316406 16.882812 Z M 15.316406 16.882812 "/>
<path style=" stroke:none;fill-rule:evenodd;fill:rgb(86.27451%,78.431373%,44.313725%);fill-opacity:1;" d="M 15.316406 16.882812 C 20.410156 16.882812 25.5 16.882812 30.589844 16.882812 C 30.589844 22.648438 30.589844 28.414062 30.589844 34.179688 C 30.558594 34.179688 30.527344 34.179688 30.496094 34.179688 C 30.496094 34.148438 30.496094 34.117188 30.496094 34.085938 C 30.496094 28.445312 30.496094 22.800781 30.496094 17.15625 C 25.5 16.972656 20.472656 16.914062 15.410156 16.972656 C 15.410156 22.585938 15.410156 28.199219 15.410156 33.808594 C 15.410156 33.902344 15.410156 33.992188 15.410156 34.085938 C 15.410156 34.117188 15.410156 34.148438 15.410156 34.179688 C 15.378906 34.179688 15.347656 34.179688 15.316406 34.179688 C 15.316406 28.414062 15.316406 22.648438 15.316406 16.882812 Z M 25.714844 34.179688 C 23.875 34.074219 22.035156 34.074219 20.195312 34.179688 C 20.101562 31.332031 20.070312 28.480469 20.101562 25.621094 C 22.003906 25.621094 23.90625 25.621094 25.804688 25.621094 C 25.835938 28.480469 25.804688 31.332031 25.714844 34.179688 Z M 25.714844 34.179688 "/>
<path style=" stroke:none;fill-rule:evenodd;fill:rgb(97.647059%,75.686275%,23.529412%);fill-opacity:1;" d="M 30.496094 17.15625 C 30.496094 22.800781 30.496094 28.445312 30.496094 34.085938 C 29.371094 34.117188 28.25 34.085938 27.140625 33.992188 C 27.125 30.988281 27.078125 27.984375 27.003906 24.976562 C 26.804688 24.746094 26.804688 24.503906 27.003906 24.242188 C 26.988281 24.210938 26.972656 24.179688 26.957031 24.148438 C 26.855469 24.257812 26.78125 24.378906 26.726562 24.519531 C 26.648438 24.597656 26.558594 24.628906 26.449219 24.609375 C 26.441406 24.554688 26.410156 24.507812 26.359375 24.472656 C 24.027344 24.394531 21.695312 24.410156 19.367188 24.519531 C 19.308594 24.601562 19.277344 24.695312 19.273438 24.792969 C 19.195312 24.824219 19.167969 24.886719 19.183594 24.976562 C 19.121094 25.039062 19.058594 25.101562 18.996094 25.160156 C 18.9375 25.160156 18.90625 25.191406 18.90625 25.253906 C 18.8125 28.183594 18.785156 31.125 18.8125 34.085938 C 17.679688 34.085938 16.542969 34.085938 15.410156 34.085938 C 15.410156 33.992188 15.410156 33.902344 15.410156 33.808594 C 15.5 28.246094 15.53125 22.664062 15.503906 17.066406 C 20.507812 17.035156 25.507812 17.066406 30.496094 17.15625 Z M 30.496094 17.15625 "/>
<path style=" stroke:none;fill-rule:evenodd;fill:rgb(81.568627%,73.72549%,48.627451%);fill-opacity:1;" d="M 17.066406 21.113281 C 20.9375 21.238281 24.804688 21.238281 28.65625 21.113281 C 28.71875 21.113281 28.78125 21.113281 28.84375 21.113281 C 28.832031 21.171875 28.800781 21.214844 28.75 21.253906 C 26.800781 21.265625 24.855469 21.28125 22.90625 21.296875 C 20.929688 21.296875 18.980469 21.238281 17.066406 21.113281 Z M 17.066406 21.113281 "/>
<path style=" stroke:none;fill-rule:evenodd;fill:rgb(14.509804%,25.490196%,27.058824%);fill-opacity:1;" d="M 16.972656 20.929688 C 17.09375 20.90625 17.183594 20.9375 17.25 21.023438 C 21.035156 21.113281 24.839844 21.144531 28.65625 21.113281 C 24.804688 21.238281 20.9375 21.238281 17.066406 21.113281 C 17.035156 21.050781 17.003906 20.992188 16.972656 20.929688 Z M 16.972656 20.929688 "/>
<path style=" stroke:none;fill-rule:evenodd;fill:rgb(1.176471%,20.784314%,41.568627%);fill-opacity:1;" d="M 17.15625 20.46875 C 21.023438 20.59375 24.886719 20.59375 28.75 20.46875 C 28.996094 20.660156 28.964844 20.832031 28.65625 20.976562 C 24.855469 21.023438 21.054688 21.039062 17.25 21.023438 C 17.183594 20.9375 17.09375 20.90625 16.972656 20.929688 C 16.972656 20.808594 16.972656 20.683594 16.972656 20.5625 C 17.035156 20.53125 17.097656 20.5 17.15625 20.46875 Z M 17.15625 20.46875 "/>
<path style=" stroke:none;fill-rule:evenodd;fill:rgb(7.45098%,15.294118%,25.882353%);fill-opacity:1;" d="M 28.65625 20.195312 C 29.0625 20.433594 29.121094 20.742188 28.84375 21.113281 C 28.78125 21.113281 28.71875 21.113281 28.65625 21.113281 C 24.839844 21.144531 21.035156 21.113281 17.25 21.023438 C 21.054688 21.039062 24.855469 21.023438 28.65625 20.976562 C 28.964844 20.832031 28.996094 20.660156 28.75 20.46875 C 28.738281 20.414062 28.710938 20.367188 28.65625 20.332031 C 24.855469 20.269531 21.050781 20.269531 17.25 20.332031 C 17.199219 20.367188 17.167969 20.414062 17.15625 20.46875 C 17.097656 20.5 17.035156 20.53125 16.972656 20.5625 C 16.976562 20.421875 17.035156 20.316406 17.15625 20.238281 C 20.992188 20.195312 24.824219 20.179688 28.65625 20.195312 Z M 28.65625 20.195312 "/>
<path style=" stroke:none;fill-rule:evenodd;fill:rgb(0.784314%,21.568627%,38.431373%);fill-opacity:1;" d="M 28.75 20.46875 C 24.886719 20.59375 21.023438 20.59375 17.15625 20.46875 C 17.167969 20.414062 17.199219 20.367188 17.25 20.332031 C 21.050781 20.269531 24.855469 20.269531 28.65625 20.332031 C 28.710938 20.367188 28.738281 20.414062 28.75 20.46875 Z M 28.75 20.46875 "/>
<path style=" stroke:none;fill-rule:evenodd;fill:rgb(59.215686%,54.509804%,40.392157%);fill-opacity:1;" d="M 17.15625 20.101562 C 21.007812 20.070312 24.839844 20.101562 28.65625 20.195312 C 24.824219 20.179688 20.992188 20.195312 17.15625 20.238281 C 17.035156 20.316406 16.976562 20.421875 16.972656 20.5625 C 16.972656 20.683594 16.972656 20.808594 16.972656 20.929688 C 16.855469 20.699219 16.855469 20.453125 16.972656 20.195312 C 17.035156 20.160156 17.097656 20.128906 17.15625 20.101562 Z M 17.15625 20.101562 "/>
<path style=" stroke:none;fill-rule:evenodd;fill:rgb(95.294118%,81.568627%,42.745098%);fill-opacity:1;" d="M 17.15625 20.101562 C 21.007812 19.996094 24.871094 19.980469 28.75 20.054688 C 29.082031 20.328125 29.207031 20.679688 29.117188 21.113281 C 29.027344 21.113281 28.933594 21.113281 28.84375 21.113281 C 29.121094 20.742188 29.0625 20.433594 28.65625 20.195312 C 24.839844 20.101562 21.007812 20.070312 17.15625 20.101562 Z M 17.15625 20.101562 "/>
<path style=" stroke:none;fill-rule:evenodd;fill:rgb(96.862745%,80%,27.058824%);fill-opacity:1;" d="M 30.496094 17.15625 C 25.507812 17.066406 20.507812 17.035156 15.503906 17.066406 C 15.53125 22.664062 15.5 28.246094 15.410156 33.808594 C 15.410156 28.199219 15.410156 22.585938 15.410156 16.972656 C 20.472656 16.914062 25.5 16.972656 30.496094 17.15625 Z M 30.496094 17.15625 "/>
<path style=" stroke:none;fill-rule:evenodd;fill:rgb(90.588235%,80.784314%,47.45098%);fill-opacity:1;" d="M 12.835938 16.972656 C 13.277344 16.882812 13.734375 16.851562 14.214844 16.882812 C 14.214844 22.648438 14.214844 28.414062 14.214844 34.179688 C 14.089844 34.179688 13.96875 34.179688 13.847656 34.179688 C 13.847656 34.148438 13.847656 34.117188 13.847656 34.085938 C 13.9375 34.085938 14.03125 34.085938 14.121094 34.085938 C 14.121094 28.382812 14.121094 22.679688 14.121094 16.972656 C 13.722656 16.972656 13.324219 16.972656 12.925781 16.972656 C 12.894531 16.972656 12.863281 16.972656 12.835938 16.972656 Z M 12.835938 16.972656 "/>
<path style=" stroke:none;fill-rule:evenodd;fill:rgb(66.27451%,62.352941%,35.294118%);fill-opacity:1;" d="M 26.449219 24.609375 C 24.183594 24.503906 21.914062 24.488281 19.640625 24.5625 C 19.507812 24.597656 19.417969 24.675781 19.367188 24.792969 C 19.335938 24.792969 19.304688 24.792969 19.273438 24.792969 C 19.277344 24.695312 19.308594 24.601562 19.367188 24.519531 C 21.695312 24.410156 24.027344 24.394531 26.359375 24.472656 C 26.410156 24.507812 26.441406 24.554688 26.449219 24.609375 Z M 26.449219 24.609375 "/>
<path style=" stroke:none;fill-rule:evenodd;fill:rgb(4.313725%,20.392157%,37.647059%);fill-opacity:1;" d="M 26.449219 24.609375 C 26.480469 24.671875 26.511719 24.734375 26.542969 24.792969 C 26.117188 24.921875 25.6875 25.027344 25.253906 25.117188 C 23.71875 25.191406 22.1875 25.175781 20.652344 25.070312 C 20.207031 25.015625 19.78125 24.925781 19.367188 24.792969 C 19.417969 24.675781 19.507812 24.597656 19.640625 24.5625 C 21.914062 24.488281 24.183594 24.503906 26.449219 24.609375 Z M 26.449219 24.609375 "/>
<path style=" stroke:none;fill-rule:evenodd;fill:rgb(94.901961%,80%,36.470588%);fill-opacity:1;" d="M 30.496094 34.085938 C 30.496094 34.117188 30.496094 34.148438 30.496094 34.179688 C 29.332031 34.179688 28.167969 34.179688 27.003906 34.179688 C 27.03125 31.15625 27 28.152344 26.910156 25.160156 C 26.820312 25.011719 26.699219 24.886719 26.542969 24.792969 C 26.511719 24.734375 26.480469 24.671875 26.449219 24.609375 C 26.558594 24.628906 26.648438 24.597656 26.726562 24.519531 C 26.78125 24.378906 26.855469 24.257812 26.957031 24.148438 C 26.972656 24.179688 26.988281 24.210938 27.003906 24.242188 C 26.804688 24.503906 26.804688 24.746094 27.003906 24.976562 C 27.078125 27.984375 27.125 30.988281 27.140625 33.992188 C 28.25 34.085938 29.371094 34.117188 30.496094 34.085938 Z M 30.496094 34.085938 "/>
<path style=" stroke:none;fill-rule:evenodd;fill:rgb(3.137255%,19.607843%,42.352941%);fill-opacity:1;" d="M 19.273438 24.792969 C 19.304688 24.792969 19.335938 24.792969 19.367188 24.792969 C 19.78125 24.925781 20.207031 25.015625 20.652344 25.070312 C 22.1875 25.175781 23.71875 25.191406 25.253906 25.117188 C 25.6875 25.027344 26.117188 24.921875 26.542969 24.792969 C 26.539062 24.910156 26.585938 25 26.679688 25.070312 C 26.757812 27.921875 26.742188 30.773438 26.632812 33.625 C 26.523438 33.589844 26.460938 33.515625 26.449219 33.394531 C 26.570312 30.621094 26.570312 27.847656 26.449219 25.070312 C 26.136719 25.125 25.832031 25.203125 25.53125 25.300781 C 23.8125 25.363281 22.09375 25.363281 20.378906 25.300781 C 20.078125 25.203125 19.769531 25.125 19.457031 25.070312 C 19.335938 27.832031 19.335938 30.59375 19.457031 33.351562 C 19.425781 33.441406 19.367188 33.503906 19.273438 33.535156 C 19.183594 30.683594 19.152344 27.832031 19.183594 24.976562 C 19.167969 24.886719 19.195312 24.824219 19.273438 24.792969 Z M 19.273438 24.792969 "/>
<path style=" stroke:none;fill-rule:evenodd;fill:rgb(94.901961%,80.784314%,37.254902%);fill-opacity:1;" d="M 18.90625 25.253906 C 18.90625 28.230469 18.90625 31.203125 18.90625 34.179688 C 17.742188 34.179688 16.574219 34.179688 15.410156 34.179688 C 15.410156 34.148438 15.410156 34.117188 15.410156 34.085938 C 16.542969 34.085938 17.679688 34.085938 18.8125 34.085938 C 18.785156 31.125 18.8125 28.183594 18.90625 25.253906 Z M 18.90625 25.253906 "/>
<path style=" stroke:none;fill-rule:evenodd;fill:rgb(92.54902%,81.960784%,42.745098%);fill-opacity:1;" d="M 33.074219 16.882812 C 33.074219 22.648438 33.074219 28.414062 33.074219 34.179688 C 32.613281 34.179688 32.152344 34.179688 31.695312 34.179688 C 31.695312 28.414062 31.695312 22.648438 31.695312 16.882812 C 32.152344 16.882812 32.613281 16.882812 33.074219 16.882812 Z M 33.074219 16.882812 "/>
<path style=" stroke:none;fill-rule:evenodd;fill:rgb(96.470588%,76.862745%,24.313725%);fill-opacity:1;" d="M 32.980469 17.066406 C 32.734375 17.074219 32.488281 17.105469 32.246094 17.15625 C 32.277344 22.53125 32.277344 27.894531 32.246094 33.257812 C 32.339844 33.257812 32.429688 33.257812 32.523438 33.257812 C 32.523438 27.941406 32.554688 22.605469 32.613281 17.25 C 32.679688 21.269531 32.738281 25.285156 32.796875 29.300781 C 32.730469 30.679688 32.683594 32.0625 32.660156 33.441406 C 32.429688 33.5 32.214844 33.4375 32.015625 33.257812 C 31.964844 31.859375 32.007812 30.464844 32.152344 29.070312 C 32.09375 25.070312 32.03125 21.070312 31.96875 17.066406 C 31.910156 22.539062 31.847656 28 31.785156 33.441406 C 31.785156 27.953125 31.785156 22.464844 31.785156 16.972656 C 32.203125 16.945312 32.601562 16.976562 32.980469 17.066406 Z M 32.980469 17.066406 "/>
<path style=" stroke:none;fill-rule:evenodd;fill:rgb(98.039216%,75.686275%,25.490196%);fill-opacity:1;" d="M 32.980469 17.066406 C 32.980469 22.738281 32.980469 28.414062 32.980469 34.085938 C 32.582031 34.085938 32.183594 34.085938 31.785156 34.085938 C 31.785156 33.871094 31.785156 33.65625 31.785156 33.441406 C 31.847656 28 31.910156 22.539062 31.96875 17.066406 C 32.03125 21.070312 32.09375 25.070312 32.152344 29.070312 C 32.007812 30.464844 31.964844 31.859375 32.015625 33.257812 C 32.214844 33.4375 32.429688 33.5 32.660156 33.441406 C 32.683594 32.0625 32.730469 30.679688 32.796875 29.300781 C 32.738281 25.285156 32.679688 21.269531 32.613281 17.25 C 32.554688 22.605469 32.523438 27.941406 32.523438 33.257812 C 32.429688 33.257812 32.339844 33.257812 32.246094 33.257812 C 32.277344 27.894531 32.277344 22.53125 32.246094 17.15625 C 32.488281 17.105469 32.734375 17.074219 32.980469 17.066406 Z M 32.980469 17.066406 "/>
<use xlink:href="#surface53" mask="url(#mask16)"/>
<use xlink:href="#surface56" mask="url(#mask17)"/>
<use xlink:href="#surface59" mask="url(#mask18)"/>
<use xlink:href="#surface62" mask="url(#mask19)"/>
<path style=" stroke:none;fill-rule:evenodd;fill:rgb(61.960784%,59.607843%,43.921569%);fill-opacity:1;" d="M 18.996094 25.160156 C 18.996094 28.199219 18.996094 31.234375 18.996094 34.269531 C 17.769531 34.269531 16.542969 34.269531 15.316406 34.269531 C 15.316406 34.238281 15.316406 34.207031 15.316406 34.179688 C 15.347656 34.179688 15.378906 34.179688 15.410156 34.179688 C 16.574219 34.179688 17.742188 34.179688 18.90625 34.179688 C 18.90625 31.203125 18.90625 28.230469 18.90625 25.253906 C 18.90625 25.191406 18.9375 25.160156 18.996094 25.160156 Z M 18.996094 25.160156 "/>
<use xlink:href="#surface65" mask="url(#mask20)"/>
<path style=" stroke:none;fill-rule:evenodd;fill:rgb(61.960784%,59.215686%,44.313725%);fill-opacity:1;" d="M 26.910156 25.160156 C 27 28.152344 27.03125 31.15625 27.003906 34.179688 C 28.167969 34.179688 29.332031 34.179688 30.496094 34.179688 C 30.527344 34.179688 30.558594 34.179688 30.589844 34.179688 C 30.589844 34.207031 30.589844 34.238281 30.589844 34.269531 C 29.515625 34.269531 28.445312 34.269531 27.371094 34.269531 C 27.214844 34.269531 27.0625 34.269531 26.910156 34.269531 C 26.910156 31.234375 26.910156 28.199219 26.910156 25.160156 Z M 26.910156 25.160156 "/>
<use xlink:href="#surface68" mask="url(#mask21)"/>
<path style=" stroke:none;fill-rule:evenodd;fill:rgb(3.529412%,13.333333%,21.960784%);fill-opacity:1;" d="M 15.316406 34.269531 C 16.542969 34.269531 17.769531 34.269531 18.996094 34.269531 C 19.011719 34.351562 18.980469 34.410156 18.90625 34.453125 C 17.742188 34.332031 16.574219 34.332031 15.410156 34.453125 C 15.335938 34.410156 15.304688 34.351562 15.316406 34.269531 Z M 15.316406 34.269531 "/>
<path style=" stroke:none;fill-rule:evenodd;fill:rgb(3.529412%,12.54902%,21.960784%);fill-opacity:1;" d="M 27.371094 34.269531 C 28.445312 34.269531 29.515625 34.269531 30.589844 34.269531 C 30.601562 34.351562 30.570312 34.410156 30.496094 34.453125 C 29.445312 34.394531 28.402344 34.332031 27.371094 34.269531 Z M 27.371094 34.269531 "/>
<path style=" stroke:none;fill-rule:evenodd;fill:rgb(54.509804%,79.607843%,83.137255%);fill-opacity:1;" d="M 36.753906 36.476562 C 36.722656 36.476562 36.691406 36.476562 36.660156 36.476562 C 36.660156 36.203125 36.660156 35.925781 36.660156 35.648438 C 32.125 35.527344 27.554688 35.464844 22.953125 35.464844 C 18.355469 35.464844 13.785156 35.527344 9.246094 35.648438 C 9.246094 35.925781 9.246094 36.203125 9.246094 36.476562 C 9.214844 36.476562 9.183594 36.476562 9.152344 36.476562 C 9.152344 36.078125 9.152344 35.679688 9.152344 35.28125 C 18.355469 35.28125 27.554688 35.28125 36.753906 35.28125 C 36.753906 35.679688 36.753906 36.078125 36.753906 36.476562 Z M 36.753906 36.476562 "/>
<path style=" stroke:none;fill-rule:evenodd;fill:rgb(50.588235%,80%,75.294118%);fill-opacity:1;" d="M 36.660156 35.648438 C 27.503906 35.769531 18.367188 35.769531 9.246094 35.648438 C 13.785156 35.527344 18.355469 35.464844 22.953125 35.464844 C 27.554688 35.464844 32.125 35.527344 36.660156 35.648438 Z M 36.660156 35.648438 "/>
<path style=" stroke:none;fill-rule:evenodd;fill:rgb(50.196078%,79.607843%,76.470588%);fill-opacity:1;" d="M 9.246094 35.648438 C 18.367188 35.769531 27.503906 35.769531 36.660156 35.648438 C 36.660156 35.925781 36.660156 36.203125 36.660156 36.476562 C 27.523438 36.476562 18.382812 36.476562 9.246094 36.476562 C 9.246094 36.203125 9.246094 35.925781 9.246094 35.648438 Z M 9.246094 35.648438 "/>
<use xlink:href="#surface71" mask="url(#mask22)"/>
<use xlink:href="#surface74" mask="url(#mask23)"/>
<path style=" stroke:none;fill-rule:evenodd;fill:rgb(52.941176%,78.823529%,83.137255%);fill-opacity:1;" d="M 9.152344 36.476562 C 9.183594 36.476562 9.214844 36.476562 9.246094 36.476562 C 18.382812 36.476562 27.523438 36.476562 36.660156 36.476562 C 36.691406 36.476562 36.722656 36.476562 36.753906 36.476562 C 32.183594 36.601562 27.585938 36.660156 22.953125 36.660156 C 18.324219 36.660156 13.722656 36.601562 9.152344 36.476562 Z M 9.152344 36.476562 "/>
<use xlink:href="#surface77" mask="url(#mask24)"/>
<use xlink:href="#surface80" mask="url(#mask25)"/>
<use xlink:href="#surface83" mask="url(#mask26)"/>
<path style=" stroke:none;fill-rule:evenodd;fill:rgb(5.490196%,22.352941%,34.509804%);fill-opacity:1;" d="M 38.777344 37.765625 C 38.847656 37.753906 38.90625 37.769531 38.960938 37.8125 C 38.816406 38.277344 38.847656 38.722656 39.054688 39.144531 C 28.335938 39.238281 17.601562 39.269531 6.855469 39.238281 C 7.019531 38.707031 7.082031 38.152344 7.039062 37.582031 C 17.648438 37.519531 28.230469 37.582031 38.777344 37.765625 Z M 38.777344 37.765625 "/>
<path style=" stroke:none;fill-rule:evenodd;fill:rgb(45.098039%,69.019608%,76.078431%);fill-opacity:1;" d="M 7.222656 37.765625 C 7.222656 38.195312 7.222656 38.625 7.222656 39.054688 C 7.375 39.054688 7.527344 39.054688 7.683594 39.054688 C 15.929688 39.054688 24.179688 39.054688 32.429688 39.054688 C 34.515625 39.054688 36.601562 39.054688 38.6875 39.054688 C 38.6875 38.625 38.6875 38.195312 38.6875 37.765625 C 38.714844 37.765625 38.746094 37.765625 38.777344 37.765625 C 38.777344 38.226562 38.777344 38.6875 38.777344 39.144531 C 28.230469 39.144531 17.679688 39.144531 7.128906 39.144531 C 7.101562 38.667969 7.132812 38.207031 7.222656 37.765625 Z M 7.222656 37.765625 "/>
<path style=" stroke:none;fill-rule:evenodd;fill:rgb(59.215686%,83.921569%,86.666667%);fill-opacity:1;" d="M 7.222656 37.765625 C 17.710938 37.765625 28.199219 37.765625 38.6875 37.765625 C 38.6875 38.195312 38.6875 38.625 38.6875 39.054688 C 36.601562 39.054688 34.515625 39.054688 32.429688 39.054688 C 34.46875 38.960938 36.523438 38.929688 38.59375 38.960938 C 38.59375 38.59375 38.59375 38.226562 38.59375 37.859375 C 28.167969 37.859375 17.742188 37.859375 7.3125 37.859375 C 7.3125 38.226562 7.3125 38.59375 7.3125 38.960938 C 7.460938 38.9375 7.582031 38.96875 7.683594 39.054688 C 7.527344 39.054688 7.375 39.054688 7.222656 39.054688 C 7.222656 38.625 7.222656 38.195312 7.222656 37.765625 Z M 7.222656 37.765625 "/>
<path style=" stroke:none;fill-rule:evenodd;fill:rgb(50.588235%,79.607843%,77.647059%);fill-opacity:1;" d="M 32.429688 39.054688 C 24.179688 39.054688 15.929688 39.054688 7.683594 39.054688 C 7.582031 38.96875 7.460938 38.9375 7.3125 38.960938 C 7.3125 38.59375 7.3125 38.226562 7.3125 37.859375 C 17.742188 37.859375 28.167969 37.859375 38.59375 37.859375 C 38.59375 38.226562 38.59375 38.59375 38.59375 38.960938 C 36.523438 38.929688 34.46875 38.960938 32.429688 39.054688 Z M 32.429688 39.054688 "/>
<path style=" stroke:none;fill-rule:evenodd;fill:rgb(0.784314%,20.784314%,38.431373%);fill-opacity:1;" d="M 39.054688 39.144531 C 39.332031 39.523438 39.273438 39.832031 38.871094 40.066406 C 28.289062 40.066406 17.710938 40.066406 7.128906 40.066406 C 6.65625 39.914062 6.5625 39.636719 6.855469 39.238281 C 17.601562 39.269531 28.335938 39.238281 39.054688 39.144531 Z M 39.054688 39.144531 "/>
<path style=" stroke:none;fill-rule:evenodd;fill:rgb(1.960784%,20.392157%,42.745098%);fill-opacity:1;" d="M 6.855469 39.328125 C 17.585938 39.300781 28.320312 39.328125 39.054688 39.421875 C 38.867188 39.5625 38.652344 39.636719 38.410156 39.652344 C 32.480469 39.769531 26.546875 39.753906 20.609375 39.605469 C 16.492188 39.65625 12.351562 39.714844 8.1875 39.789062 C 7.789062 39.714844 7.390625 39.625 6.992188 39.515625 C 6.898438 39.484375 6.851562 39.421875 6.855469 39.328125 Z M 6.855469 39.328125 "/>
<use xlink:href="#surface86" mask="url(#mask27)"/>
<use xlink:href="#surface89" mask="url(#mask28)"/>
<use xlink:href="#surface92" mask="url(#mask29)"/>
</g>
</svg>
